<svg xmlns="http://www.w3.org/2000/svg" width="256.246" height="329.593" viewBox="0 0 256.246 329.593">
  <g id="Group_7359" data-name="Group 7359" transform="translate(-100.565 -36.331)">
    <g id="Group_7272" data-name="Group 7272" transform="translate(208.661 346.101)">
      <path id="Path_313" data-name="Path 313" d="M268.489,420.528a3.527,3.527,0,0,1-1.283,2.512,8.581,8.581,0,0,1-1.5,1.106c-.149.088-.3.175-.46.258a20.011,20.011,0,0,1-4.137,1.592c-.481.133-.981.255-1.5.371-1.149.254-2.377.462-3.672.618-.3.035-.606.068-.915.1l-1.493.123c-.96.063-1.948.1-2.955.1q-.234,0-.472,0c-.388,0-.774-.008-1.156-.019-.5-.014-1-.038-1.493-.068a43.533,43.533,0,0,1-4.583-.507c-.509-.088-1.007-.179-1.49-.281-.29-.062-.576-.125-.855-.191a25.418,25.418,0,0,1-3.722-1.156,15.4,15.4,0,0,1-1.488-.679,11.44,11.44,0,0,1-1.394-.842,4.446,4.446,0,0,1-2.1-2.918,2.392,2.392,0,0,1-.018-.318,4.145,4.145,0,0,1,2.118-3.184c.083-.059.17-.118.257-.174a16.024,16.024,0,0,1,3.717-1.712,39.462,39.462,0,0,1,12.284-1.7c.917,0,1.821.036,2.7.092a38.333,38.333,0,0,1,8.649,1.448,19.512,19.512,0,0,1,3.712,1.507c.163.09.321.179.472.272a.283.283,0,0,1,.028.014A8.585,8.585,0,0,1,267.234,418,3.527,3.527,0,0,1,268.489,420.528Z" transform="translate(-231.807 -407.482)" fill="#d1a119"/>
      <path id="Path_314" data-name="Path 314" d="M240.955,415.648v10.93a25.448,25.448,0,0,1-3.722-1.156,15.414,15.414,0,0,1-1.488-.679,11.442,11.442,0,0,1-1.394-.842v-6.42c.083-.059.17-.118.257-.174a16.026,16.026,0,0,1,3.717-1.712Z" transform="translate(-232.229 -407.822)" fill="#f5ff71" opacity="0.42"/>
      <path id="Path_315" data-name="Path 315" d="M270.062,416.905v7.805a20,20,0,0,1-4.137,1.592c-.481.133-.981.255-1.5.371-1.149.254-2.377.462-3.672.618V417.269l5.592-1.87A19.517,19.517,0,0,1,270.062,416.905Z" transform="translate(-236.621 -407.79)" fill="#612115" opacity="0.25"/>
      <g id="Group_7271" data-name="Group 7271" transform="translate(0 6.369)">
        <g id="Group_7270" data-name="Group 7270">
          <path id="Path_316" data-name="Path 316" d="M231.844,413.911l-.038,6.814,2.89-3.023Z" transform="translate(-231.806 -413.911)" fill="#f79f11"/>
          <path id="Path_317" data-name="Path 317" d="M275.192,414.641l-.034,6.069-1.261-1.266-1.484-1.492-.495-.5.471-.405Z" transform="translate(-238.477 -414.033)" fill="#f79f11"/>
        </g>
      </g>
      <path id="Path_318" data-name="Path 318" d="M268.529,413.249c-.019,3.451-6.807,6.269-15.644,6.715-.892.044-1.8.066-2.734.061h-.045a46.08,46.08,0,0,1-6.691-.519c-.6-.092-1.189-.2-1.757-.312a26.076,26.076,0,0,1-5.571-1.717c-.217-.1-.427-.2-.629-.3l0,0a10.45,10.45,0,0,1-2.1-1.377l0,0a5.251,5.251,0,0,1-.939-1.042,3.008,3.008,0,0,1-.559-1.706c.017-2.757,4.356-5.111,10.611-6.174q1.316-.223,2.736-.368c1.094-.108,2.228-.183,3.4-.214h0q.5-.014,1.007-.014c.205,0,.413,0,.62,0,1.4.008,2.757.073,4.067.193q.952.085,1.861.208a34.95,34.95,0,0,1,5.372,1.123c.729.219,1.416.458,2.05.717C266.655,409.76,268.538,411.428,268.529,413.249Z" transform="translate(-231.814 -406.272)" fill="#f9eb40"/>
      <path id="Path_319" data-name="Path 319" d="M267.542,412.9c-.018,3-6.349,5.46-14.593,5.848q-1.247.059-2.549.053h-.042a45.955,45.955,0,0,1-6.242-.452c-.561-.08-1.109-.17-1.639-.271a25.571,25.571,0,0,1-5.2-1.5c-.2-.084-.4-.173-.587-.263l0,0a9.819,9.819,0,0,1-1.96-1.2l0,0a4.73,4.73,0,0,1-.875-.908,2.5,2.5,0,0,1-.521-1.485c.015-2.4,4.063-4.451,9.9-5.378q1.228-.194,2.552-.32c1.021-.094,2.079-.16,3.168-.187h.005c.31-.008.622-.013.939-.013.192,0,.385,0,.579,0,1.3.007,2.572.064,3.793.169q.888.074,1.736.18a34.762,34.762,0,0,1,5.011.978c.68.191,1.32.4,1.912.625C265.795,409.865,267.551,411.316,267.542,412.9Z" transform="translate(-232.059 -406.364)" fill="none" stroke="#f2a100" stroke-width="0.58" opacity="0.4"/>
      <path id="Path_320" data-name="Path 320" d="M265.532,408.552,254.84,420c-.892.044-1.8.066-2.734.061h-.045a46.08,46.08,0,0,1-6.691-.519c-.6-.092-1.189-.2-1.757-.312L256.249,406.5q.952.085,1.861.208a34.955,34.955,0,0,1,5.372,1.123C264.21,408.054,264.9,408.292,265.532,408.552Z" transform="translate(-233.77 -406.311)" fill="#fff" opacity="0.42"/>
      <path id="Path_321" data-name="Path 321" d="M249.717,406.275l-13.519,11.2c-.217-.1-.427-.2-.629-.3l0,0a10.45,10.45,0,0,1-2.1-1.377l0,0a5.25,5.25,0,0,1-.939-1.042l10.052-7.88q1.316-.223,2.736-.368c1.094-.108,2.229-.183,3.4-.214h0Q249.209,406.275,249.717,406.275Z" transform="translate(-231.925 -406.272)" fill="#fff" opacity="0.42"/>
      <path id="Path_322" data-name="Path 322" d="M263.955,413.308a1.758,1.758,0,0,1-.218.825v0c-1.11,2.08-6.258,3.629-12.431,3.594-5.753-.032-10.6-1.428-12.109-3.314l-.015-.015a2.94,2.94,0,0,1-.168-.242l0,0a1.839,1.839,0,0,1-.3-.988c.014-2.48,5.677-4.458,12.647-4.419S263.969,410.827,263.955,413.308Z" transform="translate(-232.954 -406.684)" fill="#f4c500"/>
      <path id="Path_323" data-name="Path 323" d="M250.229,409.98l-5.389,4.867,1.808.211L249,412.9a5.4,5.4,0,0,0,.818.12l-2.284,2.15,1.07.241,2.326-2.474a2.342,2.342,0,0,1,2.109.333c.91.754-.485,2.645-.485,2.645l1.517.449,5.63-3.525-1.565-.007-3.948,2.265s1.275-3.081-2.636-2.79l1.406-1.391-.965-.006-1.366,1.277-1.009-.113,2.117-1.968Z" transform="translate(-233.974 -406.889)" fill="#f9eb40"/>
      <path id="Path_324" data-name="Path 324" d="M237.877,415.327l.2.278a.14.14,0,0,0-.016-.017C237.992,415.5,237.932,415.414,237.877,415.327Z" transform="translate(-232.816 -407.778)" fill="#612115" opacity="0.38"/>
      <path id="Path_325" data-name="Path 325" d="M263.955,413.308a1.758,1.758,0,0,1-.218.825c0-.14-.144-4.465-12.382-4.533-12.432-.07-12.345,4.555-12.345,4.555a1.839,1.839,0,0,1-.3-.988c.014-2.48,5.677-4.458,12.647-4.419S263.969,410.827,263.955,413.308Z" transform="translate(-232.954 -406.684)" fill="#612115" opacity="0.38"/>
    </g>
    <g id="Group_7314" data-name="Group 7314" transform="translate(209.479 61.268)">
      <g id="Group_7311" data-name="Group 7311" transform="translate(2.826 1.073)">
        <g id="Group_7310" data-name="Group 7310">
          <path id="Path_463" data-name="Path 463" d="M237.478,96.472l3.271,2.221-.16-2.224Z" transform="translate(-236.408 -72.341)" fill="#d1a119"/>
          <path id="Path_464" data-name="Path 464" d="M260.155,69.994l-3.631-2.465.559,3.081Z" transform="translate(-239.575 -67.529)" fill="#d1a119"/>
          <g id="Group_7309" data-name="Group 7309" transform="translate(0 0.847)">
            <path id="Path_465" data-name="Path 465" d="M258.105,88.525a18.656,18.656,0,0,1-1.251,1.635c-.162.192-.33.379-.5.56-.127.135-.254.27-.384.4a16.3,16.3,0,0,1-1.747,1.532q-.553.426-1.131.8a14.937,14.937,0,0,1-2.053,1.1,13.773,13.773,0,0,1-1.481.557,12.523,12.523,0,0,1-1.549.38c-.3.056-.607.1-.909.127a10.96,10.96,0,0,1-2.309-.005,9.362,9.362,0,0,1-4.253-1.555,9.185,9.185,0,0,1-2.289-2.222l0,0c-2.984-4.114-2.749-10.681.96-16.137,3.577-5.26,9.3-7.9,14.126-6.956l0,0a9.306,9.306,0,0,1,3.288,1.326l.043.028c.037.022.075.048.111.072a9.587,9.587,0,0,1,3.542,4.546,11.607,11.607,0,0,1,.557,1.941c.067.329.116.662.155,1a14.042,14.042,0,0,1,.087,1.588,13.581,13.581,0,0,1-.082,1.508,15.85,15.85,0,0,1-.351,2.008c-.043.178-.089.356-.138.538-.117.429-.258.858-.408,1.286a18.7,18.7,0,0,1-1.079,2.39c-.208.374-.426.745-.659,1.115C258.3,88.229,258.2,88.377,258.105,88.525Z" transform="translate(-236.194 -68.545)" fill="#d1a119"/>
          </g>
        </g>
      </g>
      <path id="Path_466" data-name="Path 466" d="M257.451,93.889c-.127.135-.254.27-.384.4a16.307,16.307,0,0,1-1.747,1.532q-.553.426-1.13.8a14.938,14.938,0,0,1-2.053,1.1,13.766,13.766,0,0,1-1.482.557,12.517,12.517,0,0,1-1.549.38c-2.564-1.706-6.306-3.943-6.306-3.943L248.09,87.6Z" transform="translate(-234.467 -69.794)" fill="#612115" opacity="0.25"/>
      <path id="Path_467" data-name="Path 467" d="M264.261,83.908l-6.554-4.4,1.964-4.017,4.935,3.312a14.35,14.35,0,0,1,0,3.1A16.21,16.21,0,0,1,264.261,83.908Z" transform="translate(-236.946 -67.78)" fill="#f5ff71" opacity="0.42"/>
      <path id="Path_468" data-name="Path 468" d="M254.716,86.221c-3.014,4.432-7.555,7-11.792,7.136a9.621,9.621,0,0,1-5.781-1.611c-.1-.067-.2-.138-.293-.209a9.282,9.282,0,0,1-2.386-2.6,11.142,11.142,0,0,1-1.5-4.148,13.179,13.179,0,0,1-.153-2.345,15.314,15.314,0,0,1,.475-3.491c.028-.109.058-.221.088-.332a16.985,16.985,0,0,1,1.219-3.16,18.317,18.317,0,0,1,1.221-2.078A15.706,15.706,0,0,1,246.849,66.3a10.684,10.684,0,0,1,2.873.1l.053.008a9.283,9.283,0,0,1,2.82.982,8.367,8.367,0,0,1,.787.476c.238.163.469.333.689.514a9.585,9.585,0,0,1,2.468,3.147,11.474,11.474,0,0,1,1.1,3.85,15.307,15.307,0,0,1-.988,7.156l0,0A18,18,0,0,1,254.716,86.221Z" transform="translate(-232.805 -66.242)" fill="#f9eb40"/>
      <path id="Path_469" data-name="Path 469" d="M254.174,85.931c-2.78,4.087-6.967,6.458-10.873,6.58a8.867,8.867,0,0,1-5.331-1.486c-.092-.062-.181-.127-.27-.193a8.545,8.545,0,0,1-2.2-2.4,10.254,10.254,0,0,1-1.386-3.824,12.166,12.166,0,0,1-.141-2.163,14.113,14.113,0,0,1,.438-3.218c.026-.1.053-.2.081-.307a15.73,15.73,0,0,1,1.125-2.913,16.848,16.848,0,0,1,1.126-1.916,14.486,14.486,0,0,1,10.178-6.537,9.88,9.88,0,0,1,2.649.089l.048.007a8.555,8.555,0,0,1,2.6.905,7.708,7.708,0,0,1,.726.439c.219.15.434.308.635.474a8.846,8.846,0,0,1,2.275,2.9,10.58,10.58,0,0,1,1.015,3.55,14.113,14.113,0,0,1-.911,6.6v0A16.622,16.622,0,0,1,254.174,85.931Z" transform="translate(-232.998 -66.453)" fill="none" stroke="#f2a100" stroke-width="0.624" opacity="0.4"/>
      <path id="Path_470" data-name="Path 470" d="M252.6,67.412,232.809,82.475a15.318,15.318,0,0,1,.475-3.491c.028-.109.058-.221.088-.332l16.351-12.23.052.007A9.283,9.283,0,0,1,252.6,67.412Z" transform="translate(-232.805 -66.272)" fill="#fff" opacity="0.42"/>
      <path id="Path_471" data-name="Path 471" d="M257.458,84.346l0,0L243.731,95.178a9.622,9.622,0,0,1-5.781-1.611c-.1-.067-.2-.138-.293-.209L258.446,77.19A15.308,15.308,0,0,1,257.458,84.346Z" transform="translate(-233.612 -68.063)" fill="#fff" opacity="0.42"/>
      <path id="Path_472" data-name="Path 472" d="M251.891,84.546c-3.284,4.831-8.719,6.864-12.139,4.543a5.43,5.43,0,0,1-1.3-1.25,6.8,6.8,0,0,1-1.231-3.1,12.468,12.468,0,0,1,2.294-8.6c3.284-4.831,8.716-6.866,12.134-4.544a4.9,4.9,0,0,1,.416.312l.006,0a5.65,5.65,0,0,1,1.32,1.612,7.624,7.624,0,0,1,.886,3.368A12.938,12.938,0,0,1,251.891,84.546Z" transform="translate(-233.522 -66.973)" fill="#f4c500"/>
      <path id="Path_473" data-name="Path 473" d="M254.294,77.468,238.47,88.415a6.8,6.8,0,0,1-1.231-3.1L253.408,74.1A7.625,7.625,0,0,1,254.294,77.468Z" transform="translate(-233.542 -67.549)" fill="#c57f2a" opacity="0.38"/>
      <path id="Path_474" data-name="Path 474" d="M239.753,89.089c-3.416-2.32-3.527-8.118-.242-12.949s8.718-6.865,12.135-4.544a4.969,4.969,0,0,1,.415.313c-.2-.108-5.76-3.236-11.292,3.978C234.79,83.685,239.753,89.089,239.753,89.089Z" transform="translate(-233.522 -66.973)" fill="#612115" opacity="0.38"/>
      <g id="Group_7313" data-name="Group 7313" transform="translate(7.437 7.232)">
        <g id="Group_7312" data-name="Group 7312">
          <path id="Path_475" data-name="Path 475" d="M246.8,74.917l5.572,3.424-1.546,1.11-1.5-1.008S247.43,83.061,243.3,82.6l.714,6.909-1.266-.85-1.025-6.485.964-1.436s2.467,1.475,3.785-.447,1.129-2.778,1.129-2.778l-2.362-1.4Z" transform="translate(-241.725 -74.917)" fill="#f9eb40"/>
          <path id="Path_476" data-name="Path 476" d="M244.918,77.946l-1.02.763,5.239,3.268,1.132-.825Z" transform="translate(-242.086 -75.421)" fill="#f9eb40"/>
        </g>
      </g>
    </g>
    <g id="Group_7320" data-name="Group 7320" transform="translate(100.565 131.466)">
      <g id="Group_7317" data-name="Group 7317" transform="translate(2.826 1.073)">
        <g id="Group_7316" data-name="Group 7316">
          <path id="Path_477" data-name="Path 477" d="M107.412,180.2l3.271,2.221-.16-2.224Z" transform="translate(-106.343 -156.07)" fill="#d1a119"/>
          <path id="Path_478" data-name="Path 478" d="M130.089,153.722l-3.631-2.465.559,3.081Z" transform="translate(-109.51 -151.257)" fill="#d1a119"/>
          <g id="Group_7315" data-name="Group 7315" transform="translate(0 0.847)">
            <path id="Path_479" data-name="Path 479" d="M128.04,172.253a18.676,18.676,0,0,1-1.251,1.636c-.162.191-.33.378-.5.56-.128.134-.255.269-.385.4a16.368,16.368,0,0,1-1.747,1.532q-.554.428-1.131.8a15.05,15.05,0,0,1-2.054,1.1,14.066,14.066,0,0,1-1.481.557,12.627,12.627,0,0,1-1.549.379c-.3.056-.607.1-.908.128a11.027,11.027,0,0,1-2.31-.005,9.372,9.372,0,0,1-4.252-1.555,9.178,9.178,0,0,1-2.29-2.223h0c-2.984-4.114-2.749-10.681.96-16.138,3.577-5.26,9.3-7.9,14.127-6.956l0,0a9.331,9.331,0,0,1,3.289,1.326l.043.029c.037.022.075.047.111.071a9.587,9.587,0,0,1,3.541,4.547,11.6,11.6,0,0,1,.558,1.94c.067.329.115.662.154,1a14.236,14.236,0,0,1,.088,1.588,13.576,13.576,0,0,1-.083,1.508,15.853,15.853,0,0,1-.35,2.008c-.043.179-.089.357-.138.538-.117.429-.258.858-.408,1.287a19,19,0,0,1-1.079,2.39c-.208.374-.427.744-.659,1.115C128.238,171.958,128.139,172.105,128.04,172.253Z" transform="translate(-106.129 -152.273)" fill="#d1a119"/>
          </g>
        </g>
      </g>
      <path id="Path_480" data-name="Path 480" d="M127.386,177.618c-.128.134-.255.269-.385.4a16.376,16.376,0,0,1-1.747,1.532q-.554.428-1.13.8a15.042,15.042,0,0,1-2.054,1.1,14.071,14.071,0,0,1-1.481.557,12.627,12.627,0,0,1-1.549.379c-2.563-1.706-6.305-3.943-6.305-3.943l5.29-7.1Z" transform="translate(-104.402 -153.523)" fill="#612115" opacity="0.25"/>
      <path id="Path_481" data-name="Path 481" d="M134.195,167.636l-6.554-4.4,1.965-4.017,4.934,3.312a14.276,14.276,0,0,1,.005,3.1A16.012,16.012,0,0,1,134.195,167.636Z" transform="translate(-106.881 -151.509)" fill="#f5ff71" opacity="0.42"/>
      <path id="Path_482" data-name="Path 482" d="M124.651,169.949c-3.015,4.432-7.556,7-11.792,7.136a9.62,9.62,0,0,1-5.782-1.611c-.1-.067-.2-.138-.293-.208a9.285,9.285,0,0,1-2.386-2.6,11.122,11.122,0,0,1-1.5-4.148,13.1,13.1,0,0,1-.153-2.345,15.309,15.309,0,0,1,.474-3.49c.029-.109.058-.221.088-.333a17.1,17.1,0,0,1,1.219-3.159,18.24,18.24,0,0,1,1.221-2.078,15.708,15.708,0,0,1,11.038-7.09,10.713,10.713,0,0,1,2.872.1l.053.008a9.274,9.274,0,0,1,2.82.981,8.564,8.564,0,0,1,.788.477c.238.163.469.333.689.514a9.593,9.593,0,0,1,2.468,3.147,11.472,11.472,0,0,1,1.1,3.85,15.286,15.286,0,0,1-.988,7.156l0,0A17.954,17.954,0,0,1,124.651,169.949Z" transform="translate(-102.74 -149.97)" fill="#f9eb40"/>
      <path id="Path_483" data-name="Path 483" d="M124.108,169.659c-2.779,4.087-6.966,6.458-10.873,6.58a8.866,8.866,0,0,1-5.33-1.485c-.093-.062-.182-.128-.271-.193a8.558,8.558,0,0,1-2.2-2.4,10.257,10.257,0,0,1-1.386-3.825,12.16,12.16,0,0,1-.141-2.163,14.172,14.172,0,0,1,.438-3.218l.082-.306a15.677,15.677,0,0,1,1.124-2.914,16.846,16.846,0,0,1,1.126-1.915,14.481,14.481,0,0,1,10.177-6.537,9.851,9.851,0,0,1,2.649.088l.048.007a8.568,8.568,0,0,1,2.6.9,8.081,8.081,0,0,1,.726.439c.219.15.433.308.634.474a8.838,8.838,0,0,1,2.276,2.9,10.585,10.585,0,0,1,1.014,3.551,14.1,14.1,0,0,1-.91,6.6l0,0A16.536,16.536,0,0,1,124.108,169.659Z" transform="translate(-102.933 -150.181)" fill="none" stroke="#f2a100" stroke-width="0.624" opacity="0.4"/>
      <path id="Path_484" data-name="Path 484" d="M122.53,151.14,102.744,166.2a15.307,15.307,0,0,1,.474-3.49c.029-.109.058-.221.088-.333l16.35-12.23.053.008A9.275,9.275,0,0,1,122.53,151.14Z" transform="translate(-102.74 -150)" fill="#fff" opacity="0.42"/>
      <path id="Path_485" data-name="Path 485" d="M127.392,168.074l0,0-13.724,10.829a9.62,9.62,0,0,1-5.782-1.611c-.1-.067-.2-.138-.293-.208l20.788-16.169A15.286,15.286,0,0,1,127.392,168.074Z" transform="translate(-103.547 -151.791)" fill="#fff" opacity="0.42"/>
      <path id="Path_486" data-name="Path 486" d="M121.825,168.274c-3.284,4.831-8.718,6.865-12.139,4.543a5.431,5.431,0,0,1-1.3-1.25,6.807,6.807,0,0,1-1.231-3.1,12.465,12.465,0,0,1,2.294-8.6c3.284-4.831,8.716-6.865,12.134-4.544a4.908,4.908,0,0,1,.415.313l.006,0a5.646,5.646,0,0,1,1.321,1.612,7.612,7.612,0,0,1,.885,3.367A12.93,12.93,0,0,1,121.825,168.274Z" transform="translate(-103.457 -150.701)" fill="#f4c500"/>
      <path id="Path_487" data-name="Path 487" d="M124.228,161.2,108.4,172.144a6.807,6.807,0,0,1-1.231-3.1l16.17-11.215A7.612,7.612,0,0,1,124.228,161.2Z" transform="translate(-103.477 -151.277)" fill="#c57f2a" opacity="0.38"/>
      <path id="Path_488" data-name="Path 488" d="M109.687,172.818c-3.417-2.32-3.526-8.119-.242-12.949s8.719-6.865,12.135-4.545a4.963,4.963,0,0,1,.415.313c-.2-.108-5.761-3.236-11.292,3.979C104.724,167.414,109.687,172.818,109.687,172.818Z" transform="translate(-103.457 -150.701)" fill="#612115" opacity="0.38"/>
      <g id="Group_7319" data-name="Group 7319" transform="translate(7.436 7.232)">
        <g id="Group_7318" data-name="Group 7318">
          <path id="Path_489" data-name="Path 489" d="M116.732,158.645l5.572,3.424-1.545,1.111-1.5-1.008s-1.894,4.616-6.021,4.155l.714,6.91-1.266-.85-1.025-6.485.964-1.436s2.467,1.475,3.786-.448,1.128-2.777,1.128-2.777l-2.362-1.4Z" transform="translate(-111.659 -158.645)" fill="#f9eb40"/>
          <path id="Path_490" data-name="Path 490" d="M114.852,161.674l-1.02.763,5.239,3.268,1.132-.825Z" transform="translate(-112.02 -159.149)" fill="#f9eb40"/>
        </g>
      </g>
    </g>
    <g id="Group_7326" data-name="Group 7326" transform="translate(288.76 180.437)">
      <g id="Group_7323" data-name="Group 7323" transform="translate(0 2.561)">
        <g id="Group_7322" data-name="Group 7322">
          <path id="Path_491" data-name="Path 491" d="M328.856,214.954l-.936,2.962,1.639-.621Z" transform="translate(-327.583 -212.12)" fill="#d1a119"/>
          <path id="Path_492" data-name="Path 492" d="M353.643,226.069l1.039-3.288-2.194,1.114Z" transform="translate(-331.669 -213.422)" fill="#d1a119"/>
          <g id="Group_7321" data-name="Group 7321">
            <path id="Path_493" data-name="Path 493" d="M335.966,229.336a14.863,14.863,0,0,1-1.512-.574c-.181-.079-.359-.164-.534-.252-.131-.065-.261-.131-.388-.2a12.923,12.923,0,0,1-1.547-.971q-.446-.32-.853-.672a11.767,11.767,0,0,1-1.29-1.3,10.9,10.9,0,0,1-.753-.99,9.8,9.8,0,0,1-.634-1.08c-.111-.216-.21-.435-.3-.655a8.692,8.692,0,0,1-.516-1.74,7.371,7.371,0,0,1,.214-3.552,7.207,7.207,0,0,1,1.158-2.224v0c2.427-3.172,7.424-4.473,12.366-2.908,4.765,1.51,8.039,5.228,8.415,9.071v0a7.337,7.337,0,0,1-.259,2.774l-.012.038c-.008.033-.019.068-.029.1a7.535,7.535,0,0,1-2.626,3.689,9.118,9.118,0,0,1-1.336.856c-.233.124-.473.236-.719.341a11.082,11.082,0,0,1-1.175.424,10.74,10.74,0,0,1-1.155.277,12.4,12.4,0,0,1-1.59.188c-.144.008-.288.013-.436.018-.349.008-.7,0-1.06-.018a14.864,14.864,0,0,1-2.043-.274c-.328-.073-.656-.153-.987-.246C336.232,229.419,336.1,229.378,335.966,229.336Z" transform="translate(-327.516 -211.555)" fill="#d1a119"/>
          </g>
        </g>
      </g>
      <path id="Path_494" data-name="Path 494" d="M334.106,229.729c-.131-.065-.261-.131-.388-.2a12.922,12.922,0,0,1-1.546-.971q-.446-.32-.853-.672a11.775,11.775,0,0,1-1.29-1.3,10.916,10.916,0,0,1-.753-.99,9.821,9.821,0,0,1-.634-1.081c.708-2.314,1.55-5.635,1.55-5.635l6.54,2.384Z" transform="translate(-327.703 -210.212)" fill="#612115" opacity="0.25"/>
      <path id="Path_495" data-name="Path 495" d="M343.559,232.471l1.837-5.924,3.467.576-1.384,4.459a11.166,11.166,0,0,1-2.33.7A12.533,12.533,0,0,1,343.559,232.471Z" transform="translate(-330.184 -211.487)" fill="#f5ff71" opacity="0.42"/>
      <path id="Path_496" data-name="Path 496" d="M336.938,226.266a12.135,12.135,0,0,1-8.026-7.272,7.555,7.555,0,0,1-.087-4.715c.027-.09.059-.179.091-.268a7.3,7.3,0,0,1,1.421-2.382,8.745,8.745,0,0,1,2.785-2.065,10.424,10.424,0,0,1,1.732-.642,11.994,11.994,0,0,1,2.735-.428l.27-.008a13.329,13.329,0,0,1,2.653.207,14.369,14.369,0,0,1,1.838.452,12.338,12.338,0,0,1,7.821,6.715,8.377,8.377,0,0,1,.574,2.184l.006.041a7.29,7.29,0,0,1-.1,2.344,6.575,6.575,0,0,1-.182.7c-.069.215-.145.429-.232.634a7.535,7.535,0,0,1-1.814,2.566,9.019,9.019,0,0,1-2.651,1.695,12.023,12.023,0,0,1-5.611.866h0A14.1,14.1,0,0,1,336.938,226.266Z" transform="translate(-327.678 -208.483)" fill="#f9eb40"/>
      <path id="Path_497" data-name="Path 497" d="M337.322,225.742a11.192,11.192,0,0,1-7.4-6.705,6.972,6.972,0,0,1-.081-4.348c.026-.083.055-.165.084-.247a6.723,6.723,0,0,1,1.31-2.2,8.063,8.063,0,0,1,2.568-1.9,9.539,9.539,0,0,1,1.6-.592,11.066,11.066,0,0,1,2.521-.394l.249-.007a12.356,12.356,0,0,1,2.446.19,13.4,13.4,0,0,1,1.7.417,11.38,11.38,0,0,1,7.211,6.192,7.736,7.736,0,0,1,.53,2.014l.005.038a6.753,6.753,0,0,1-.1,2.162,6.324,6.324,0,0,1-.168.645c-.064.2-.134.4-.214.584a6.939,6.939,0,0,1-1.672,2.366,8.319,8.319,0,0,1-2.445,1.562,11.08,11.08,0,0,1-5.173.8h0A13.011,13.011,0,0,1,337.322,225.742Z" transform="translate(-327.851 -208.626)" fill="none" stroke="#f2a100" stroke-width="0.49" opacity="0.4"/>
      <path id="Path_498" data-name="Path 498" d="M351.914,220.431l-15.793-11.508a11.994,11.994,0,0,1,2.734-.428l.27-.008,12.886,9.558.006.041A7.286,7.286,0,0,1,351.914,220.431Z" transform="translate(-328.947 -208.484)" fill="#fff" opacity="0.42"/>
      <path id="Path_499" data-name="Path 499" d="M340.155,227.994h0l-11.242-7.9a7.555,7.555,0,0,1-.087-4.715c.027-.09.059-.179.091-.268l16.851,12.014A12.024,12.024,0,0,1,340.155,227.994Z" transform="translate(-327.678 -209.586)" fill="#fff" opacity="0.42"/>
      <path id="Path_500" data-name="Path 500" d="M338.573,223.621c-4.376-1.386-7.129-5.02-6.151-8.117a4.242,4.242,0,0,1,.648-1.262,5.341,5.341,0,0,1,2.057-1.624,9.8,9.8,0,0,1,6.991-.208c4.376,1.386,7.13,5.018,6.151,8.114a3.806,3.806,0,0,1-.142.383l0,.006a4.427,4.427,0,0,1-.916,1.356,5.992,5.992,0,0,1-2.336,1.425A10.17,10.17,0,0,1,338.573,223.621Z" transform="translate(-328.299 -209.047)" fill="#f4c500"/>
      <path id="Path_501" data-name="Path 501" d="M345.041,223.842l-11.8-9.451a5.341,5.341,0,0,1,2.057-1.624l12.082,9.65A5.992,5.992,0,0,1,345.041,223.842Z" transform="translate(-328.468 -209.195)" fill="#c57f2a" opacity="0.38"/>
      <path id="Path_502" data-name="Path 502" d="M332.461,215.505c.978-3.095,5.318-4.482,9.7-3.1s7.13,5.019,6.152,8.113c-.042.131-.089.259-.143.383.036-.175,1.14-5.065-5.537-7.607C335.413,210.552,332.461,215.505,332.461,215.505Z" transform="translate(-328.338 -209.046)" fill="#612115" opacity="0.38"/>
      <g id="Group_7325" data-name="Group 7325" transform="translate(5.13 5.65)">
        <g id="Group_7324" data-name="Group 7324">
          <path id="Path_503" data-name="Path 503" d="M345.281,217.447l-1.324,4.966-1.185-.914.422-1.357s-3.9-.387-4.484-3.6l-5.041,2.091.355-1.145,4.651-2.23,1.3.4s-.555,2.188,1.189,2.749,2.344.225,2.344.225l.526-2.094Z" transform="translate(-333.669 -215.26)" fill="#f9eb40"/>
          <path id="Path_504" data-name="Path 504" d="M344.3,216.421l-.8-.6-1.282,4.68.876.667Z" transform="translate(-335.089 -215.354)" fill="#f9eb40"/>
        </g>
      </g>
    </g>
    <g id="Group_7332" data-name="Group 7332" transform="translate(256.255 230.791)">
      <g id="Group_7329" data-name="Group 7329" transform="translate(0 3.26)">
        <g id="Group_7328" data-name="Group 7328">
          <path id="Path_505" data-name="Path 505" d="M290.374,276.856l-1.191,3.77,2.085-.79Z" transform="translate(-288.755 -273.25)" fill="#d1a119"/>
          <path id="Path_506" data-name="Path 506" d="M321.918,291l1.323-4.185-2.792,1.418Z" transform="translate(-293.954 -274.906)" fill="#d1a119"/>
          <g id="Group_7327" data-name="Group 7327">
            <path id="Path_507" data-name="Path 507" d="M299.422,295.158a18.644,18.644,0,0,1-1.925-.73c-.229-.1-.457-.208-.68-.319-.166-.083-.331-.167-.493-.254a16.351,16.351,0,0,1-1.968-1.236q-.568-.408-1.085-.855a14.976,14.976,0,0,1-1.642-1.653,13.91,13.91,0,0,1-.957-1.26,12.586,12.586,0,0,1-.808-1.376c-.141-.275-.267-.554-.382-.834a10.973,10.973,0,0,1-.656-2.214,9.368,9.368,0,0,1,.272-4.52,9.2,9.2,0,0,1,1.473-2.83v0c3.088-4.037,9.447-5.692,15.737-3.7,6.064,1.922,10.231,6.653,10.709,11.543v0a9.31,9.31,0,0,1-.329,3.531l-.015.049c-.011.042-.024.085-.037.127a9.591,9.591,0,0,1-3.342,4.695,11.617,11.617,0,0,1-1.7,1.09c-.3.158-.6.3-.914.434a14.277,14.277,0,0,1-1.5.539,13.614,13.614,0,0,1-1.468.353,15.751,15.751,0,0,1-2.024.239c-.183.01-.367.017-.554.023-.445.011-.9,0-1.35-.023a18.931,18.931,0,0,1-2.6-.349c-.418-.093-.835-.2-1.256-.313C299.761,295.264,299.592,295.212,299.422,295.158Z" transform="translate(-288.669 -272.531)" fill="#d1a119"/>
          </g>
        </g>
      </g>
      <path id="Path_508" data-name="Path 508" d="M297.055,295.659c-.166-.083-.331-.167-.493-.254a16.35,16.35,0,0,1-1.968-1.236q-.568-.408-1.085-.855a14.981,14.981,0,0,1-1.642-1.653,13.88,13.88,0,0,1-.957-1.26,12.578,12.578,0,0,1-.808-1.376c.9-2.945,1.972-7.171,1.972-7.171l8.323,3.035Z" transform="translate(-288.907 -270.822)" fill="#612115" opacity="0.25"/>
      <path id="Path_509" data-name="Path 509" d="M309.085,299.149l2.339-7.539,4.411.732-1.761,5.676a14.249,14.249,0,0,1-2.965.891A16.193,16.193,0,0,1,309.085,299.149Z" transform="translate(-292.064 -272.444)" fill="#f5ff71" opacity="0.42"/>
      <path id="Path_510" data-name="Path 510" d="M300.66,291.252c-5.11-1.619-8.875-5.234-10.214-9.255a9.621,9.621,0,0,1-.113-6c.036-.115.076-.228.117-.341a9.258,9.258,0,0,1,1.807-3.03A11.136,11.136,0,0,1,295.8,270a13.209,13.209,0,0,1,2.2-.818,15.338,15.338,0,0,1,3.481-.544l.343-.01a17.022,17.022,0,0,1,3.376.263,18.33,18.33,0,0,1,2.34.575,15.71,15.71,0,0,1,9.953,8.546,10.662,10.662,0,0,1,.73,2.78l.007.053a9.3,9.3,0,0,1-.133,2.984,8.43,8.43,0,0,1-.232.89c-.088.274-.185.545-.3.807a9.575,9.575,0,0,1-2.309,3.266,11.488,11.488,0,0,1-3.374,2.157,15.3,15.3,0,0,1-7.14,1.1h0A17.963,17.963,0,0,1,300.66,291.252Z" transform="translate(-288.875 -268.621)" fill="#f9eb40"/>
      <path id="Path_511" data-name="Path 511" d="M301.148,290.585c-4.711-1.492-8.182-4.825-9.418-8.533a8.875,8.875,0,0,1-.1-5.533c.033-.105.07-.209.108-.314a8.546,8.546,0,0,1,1.667-2.794,10.258,10.258,0,0,1,3.268-2.424,12.181,12.181,0,0,1,2.031-.754,14.144,14.144,0,0,1,3.209-.5l.318-.01a15.723,15.723,0,0,1,3.112.243,16.746,16.746,0,0,1,2.158.53,14.482,14.482,0,0,1,9.177,7.879,9.859,9.859,0,0,1,.674,2.564l.007.048a8.566,8.566,0,0,1-.123,2.75,7.772,7.772,0,0,1-.213.822c-.081.253-.17.5-.273.744a8.827,8.827,0,0,1-2.128,3.011,10.584,10.584,0,0,1-3.111,1.988,14.1,14.1,0,0,1-6.584,1.016h0A16.516,16.516,0,0,1,301.148,290.585Z" transform="translate(-289.096 -268.803)" fill="none" stroke="#f2a100" stroke-width="0.624" opacity="0.4"/>
      <path id="Path_512" data-name="Path 512" d="M319.718,283.826l-20.1-14.646a15.334,15.334,0,0,1,3.481-.544l.343-.01,16.4,12.164.007.053A9.3,9.3,0,0,1,319.718,283.826Z" transform="translate(-290.49 -268.622)" fill="#fff" opacity="0.42"/>
      <path id="Path_513" data-name="Path 513" d="M304.753,293.45h0L290.446,283.4a9.621,9.621,0,0,1-.113-6c.036-.115.076-.228.117-.341l21.444,15.289A15.3,15.3,0,0,1,304.753,293.45Z" transform="translate(-288.875 -270.024)" fill="#fff" opacity="0.42"/>
      <path id="Path_514" data-name="Path 514" d="M302.74,287.886c-5.569-1.763-9.073-6.388-7.828-10.33a5.423,5.423,0,0,1,.825-1.607,6.81,6.81,0,0,1,2.617-2.067,12.47,12.47,0,0,1,8.9-.264c5.57,1.763,9.074,6.386,7.828,10.324a4.734,4.734,0,0,1-.18.488l0,.007a5.637,5.637,0,0,1-1.166,1.727,7.628,7.628,0,0,1-2.973,1.813A12.942,12.942,0,0,1,302.74,287.886Z" transform="translate(-289.666 -269.338)" fill="#f4c500"/>
      <path id="Path_515" data-name="Path 515" d="M310.971,288.167l-15.02-12.028a6.81,6.81,0,0,1,2.617-2.067l15.376,12.281A7.628,7.628,0,0,1,310.971,288.167Z" transform="translate(-289.88 -269.527)" fill="#c57f2a" opacity="0.38"/>
      <path id="Path_516" data-name="Path 516" d="M294.962,277.557c1.245-3.938,6.768-5.7,12.338-3.939s9.073,6.388,7.829,10.325a5.2,5.2,0,0,1-.182.488c.046-.223,1.451-6.446-7.046-9.681C298.719,271.255,294.962,277.557,294.962,277.557Z" transform="translate(-289.716 -269.338)" fill="#612115" opacity="0.38"/>
      <g id="Group_7331" data-name="Group 7331" transform="translate(6.528 7.19)">
        <g id="Group_7330" data-name="Group 7330">
          <path id="Path_517" data-name="Path 517" d="M311.276,280.028l-1.685,6.319-1.507-1.163.535-1.727s-4.966-.493-5.7-4.579L296.5,281.54l.452-1.457,5.919-2.839,1.652.513s-.707,2.785,1.512,3.5,2.984.286,2.984.286l.669-2.665Z" transform="translate(-296.499 -277.245)" fill="#f9eb40"/>
          <path id="Path_518" data-name="Path 518" d="M310.023,278.723,309,277.964l-1.631,5.955,1.115.848Z" transform="translate(-298.307 -277.365)" fill="#f9eb40"/>
        </g>
      </g>
    </g>
    <g id="Group_7338" data-name="Group 7338" transform="translate(276.982 106.936)">
      <g id="Group_7335" data-name="Group 7335" transform="translate(0 3.26)">
        <g id="Group_7334" data-name="Group 7334">
          <path id="Path_519" data-name="Path 519" d="M315.13,128.906l-1.191,3.77,2.085-.79Z" transform="translate(-313.51 -125.3)" fill="#d1a119"/>
          <path id="Path_520" data-name="Path 520" d="M346.674,143.052,348,138.867l-2.792,1.418Z" transform="translate(-318.709 -126.957)" fill="#d1a119"/>
          <g id="Group_7333" data-name="Group 7333">
            <path id="Path_521" data-name="Path 521" d="M324.177,147.209a19.126,19.126,0,0,1-1.925-.73c-.229-.1-.457-.208-.679-.32-.166-.083-.332-.167-.494-.254a16.344,16.344,0,0,1-1.968-1.236q-.568-.408-1.085-.855a14.911,14.911,0,0,1-1.642-1.653,13.9,13.9,0,0,1-.958-1.26,12.444,12.444,0,0,1-.807-1.376c-.141-.275-.268-.554-.383-.834a11.008,11.008,0,0,1-.656-2.214,9.369,9.369,0,0,1,.272-4.519,9.187,9.187,0,0,1,1.474-2.83v0c3.087-4.037,9.447-5.692,15.736-3.7,6.064,1.922,10.232,6.654,10.709,11.544v0a9.321,9.321,0,0,1-.33,3.532l-.015.048c-.01.042-.023.086-.037.127a9.586,9.586,0,0,1-3.342,4.695,11.5,11.5,0,0,1-1.7,1.09c-.3.158-.6.3-.915.435a14.21,14.21,0,0,1-1.5.538,13.68,13.68,0,0,1-1.469.353,16.032,16.032,0,0,1-2.023.239c-.184.009-.367.016-.555.022-.444.011-.9,0-1.349-.023a18.775,18.775,0,0,1-2.6-.349c-.419-.092-.835-.2-1.257-.313C324.517,147.314,324.347,147.262,324.177,147.209Z" transform="translate(-313.424 -124.581)" fill="#d1a119"/>
          </g>
        </g>
      </g>
      <path id="Path_522" data-name="Path 522" d="M321.811,147.71c-.166-.083-.332-.167-.494-.254a16.338,16.338,0,0,1-1.968-1.236q-.568-.408-1.085-.855a14.907,14.907,0,0,1-1.642-1.653,13.887,13.887,0,0,1-.958-1.26,12.433,12.433,0,0,1-.807-1.376c.9-2.944,1.972-7.17,1.972-7.17l8.322,3.034Z" transform="translate(-313.663 -122.872)" fill="#612115" opacity="0.25"/>
      <path id="Path_523" data-name="Path 523" d="M333.841,151.2l2.338-7.539,4.411.732-1.761,5.677a13.827,13.827,0,0,1-1.5.537,13.625,13.625,0,0,1-1.469.353A16.162,16.162,0,0,1,333.841,151.2Z" transform="translate(-316.819 -124.494)" fill="#f5ff71" opacity="0.42"/>
      <path id="Path_524" data-name="Path 524" d="M325.415,143.3c-5.11-1.619-8.874-5.234-10.214-9.255a9.614,9.614,0,0,1-.112-6c.035-.114.076-.228.116-.34a9.288,9.288,0,0,1,1.807-3.03,11.133,11.133,0,0,1,3.544-2.629,13.213,13.213,0,0,1,2.2-.818,15.291,15.291,0,0,1,3.48-.544l.343-.011a17.031,17.031,0,0,1,3.377.263,18.232,18.232,0,0,1,2.34.575,15.7,15.7,0,0,1,9.953,8.545,10.7,10.7,0,0,1,.731,2.78l.008.053a9.275,9.275,0,0,1-.133,2.984,8.46,8.46,0,0,1-.231.891c-.088.273-.185.545-.3.806a9.584,9.584,0,0,1-2.308,3.266,11.474,11.474,0,0,1-3.374,2.157,15.3,15.3,0,0,1-7.141,1.1h0A17.929,17.929,0,0,1,325.415,143.3Z" transform="translate(-313.63 -120.671)" fill="#f9eb40"/>
      <path id="Path_525" data-name="Path 525" d="M325.9,142.635c-4.712-1.493-8.183-4.826-9.418-8.534a8.867,8.867,0,0,1-.1-5.532c.033-.106.07-.21.107-.314a8.569,8.569,0,0,1,1.667-2.795,10.266,10.266,0,0,1,3.268-2.423,12.187,12.187,0,0,1,2.032-.755,14.137,14.137,0,0,1,3.209-.5l.317-.009a15.676,15.676,0,0,1,3.113.243,16.919,16.919,0,0,1,2.158.53,14.486,14.486,0,0,1,9.177,7.88,9.844,9.844,0,0,1,.674,2.563l.007.048a8.549,8.549,0,0,1-.122,2.751,7.734,7.734,0,0,1-.213.821c-.081.253-.171.5-.273.744a8.836,8.836,0,0,1-2.128,3.01,10.588,10.588,0,0,1-3.111,1.988,14.112,14.112,0,0,1-6.584,1.017h0A16.606,16.606,0,0,1,325.9,142.635Z" transform="translate(-313.851 -120.853)" fill="none" stroke="#f2a100" stroke-width="0.624" opacity="0.4"/>
      <path id="Path_526" data-name="Path 526" d="M344.473,135.876l-20.1-14.646a15.291,15.291,0,0,1,3.48-.544l.343-.011,16.4,12.164.008.053A9.276,9.276,0,0,1,344.473,135.876Z" transform="translate(-315.245 -120.672)" fill="#fff" opacity="0.42"/>
      <path id="Path_527" data-name="Path 527" d="M329.508,145.5h0L315.2,135.45a9.614,9.614,0,0,1-.112-6c.035-.114.076-.228.116-.34L336.649,144.4A15.3,15.3,0,0,1,329.508,145.5Z" transform="translate(-313.63 -122.074)" fill="#fff" opacity="0.42"/>
      <path id="Path_528" data-name="Path 528" d="M327.5,139.936c-5.569-1.762-9.073-6.388-7.828-10.33a5.445,5.445,0,0,1,.824-1.607,6.809,6.809,0,0,1,2.618-2.066,12.464,12.464,0,0,1,8.9-.264c5.569,1.762,9.073,6.385,7.828,10.325a5.1,5.1,0,0,1-.18.487l0,.007a5.643,5.643,0,0,1-1.166,1.727,7.616,7.616,0,0,1-2.973,1.812A12.93,12.93,0,0,1,327.5,139.936Z" transform="translate(-314.421 -121.388)" fill="#f4c500"/>
      <path id="Path_529" data-name="Path 529" d="M335.726,140.217l-15.02-12.028a6.809,6.809,0,0,1,2.618-2.066L338.7,138.4A7.616,7.616,0,0,1,335.726,140.217Z" transform="translate(-314.635 -121.578)" fill="#c57f2a" opacity="0.38"/>
      <path id="Path_530" data-name="Path 530" d="M319.717,129.607c1.245-3.938,6.769-5.7,12.338-3.939s9.074,6.388,7.829,10.325a4.989,4.989,0,0,1-.182.488c.046-.223,1.451-6.445-7.046-9.68C323.474,123.3,319.717,129.607,319.717,129.607Z" transform="translate(-314.471 -121.388)" fill="#612115" opacity="0.38"/>
      <g id="Group_7337" data-name="Group 7337" transform="translate(6.529 7.19)">
        <g id="Group_7336" data-name="Group 7336">
          <path id="Path_531" data-name="Path 531" d="M336.032,132.078l-1.685,6.319-1.507-1.162.536-1.727s-4.966-.493-5.706-4.579l-6.415,2.662.452-1.456,5.919-2.84,1.652.513s-.707,2.785,1.512,3.5,2.985.286,2.985.286l.669-2.665Z" transform="translate(-321.255 -129.295)" fill="#f9eb40"/>
          <path id="Path_532" data-name="Path 532" d="M334.778,130.773l-1.023-.759-1.631,5.955,1.115.848Z" transform="translate(-323.062 -129.415)" fill="#f9eb40"/>
        </g>
      </g>
    </g>
    <g id="Group_7344" data-name="Group 7344" transform="translate(142.203 66.291)">
      <g id="Group_7341" data-name="Group 7341" transform="translate(0.553)">
        <g id="Group_7340" data-name="Group 7340">
          <path id="Path_533" data-name="Path 533" d="M184.2,98.107l1.777-3.532-2.185.448Z" transform="translate(-158.213 -75.977)" fill="#d1a119"/>
          <path id="Path_534" data-name="Path 534" d="M155.083,78.987l-1.973,3.92,2.982-.954Z" transform="translate(-153.11 -73.384)" fill="#d1a119"/>
          <g id="Group_7339" data-name="Group 7339" transform="translate(0.983)">
            <path id="Path_535" data-name="Path 535" d="M173.312,74.163a18.718,18.718,0,0,1,1.784,1.028c.211.135.418.278.62.424.15.108.3.217.446.329a16.239,16.239,0,0,1,1.746,1.533q.5.493.935,1.017a14.953,14.953,0,0,1,1.357,1.893,13.921,13.921,0,0,1,.744,1.4,12.5,12.5,0,0,1,.578,1.487c.1.293.176.589.245.884a11.017,11.017,0,0,1,.294,2.291,9.36,9.36,0,0,1-.989,4.418,9.192,9.192,0,0,1-1.906,2.559v0c-3.692,3.493-10.234,4.113-16.125,1.146-5.68-2.863-9.04-8.2-8.732-13.1v0a9.326,9.326,0,0,1,.888-3.433l.023-.045c.017-.04.037-.081.056-.119a9.6,9.6,0,0,1,4.048-4.1,11.628,11.628,0,0,1,1.852-.8c.318-.109.641-.2.971-.283a14.14,14.14,0,0,1,1.563-.293,13.533,13.533,0,0,1,1.506-.114,15.872,15.872,0,0,1,2.036.086c.183.02.365.043.551.067.441.06.885.144,1.329.238a18.759,18.759,0,0,1,2.51.759c.4.158.794.326,1.191.509C172.993,74,173.152,74.084,173.312,74.163Z" transform="translate(-154.29 -72.267)" fill="#d1a119"/>
          </g>
        </g>
      </g>
      <path id="Path_536" data-name="Path 536" d="M178.99,76.283c.15.108.3.217.446.329a16.235,16.235,0,0,1,1.746,1.533q.5.493.935,1.017a14.945,14.945,0,0,1,1.357,1.893,13.913,13.913,0,0,1,.744,1.4,12.5,12.5,0,0,1,.578,1.487c-1.357,2.763-3.089,6.764-3.089,6.764l-7.733-4.321Z" transform="translate(-156.028 -72.935)" fill="#612115" opacity="0.25"/>
      <path id="Path_537" data-name="Path 537" d="M168.294,72.357l-3.511,7.07L160.546,78l2.643-5.323a13.763,13.763,0,0,1,1.563-.292,13.933,13.933,0,0,1,1.507-.115A16.033,16.033,0,0,1,168.294,72.357Z" transform="translate(-153.794 -72.267)" fill="#f5ff71" opacity="0.42"/>
      <path id="Path_538" data-name="Path 538" d="M171.468,77.822c4.786,2.413,7.926,6.581,8.609,10.765a9.616,9.616,0,0,1-.846,5.941c-.053.108-.111.213-.169.318a9.276,9.276,0,0,1-2.267,2.7,11.13,11.13,0,0,1-3.918,2.029,13.183,13.183,0,0,1-2.305.456,15.284,15.284,0,0,1-3.522-.017l-.341-.044a16.978,16.978,0,0,1-3.291-.8,18.178,18.178,0,0,1-2.218-.941,15.707,15.707,0,0,1-8.464-10.022,10.7,10.7,0,0,1-.278-2.861V85.3a9.307,9.307,0,0,1,.607-2.924,8.562,8.562,0,0,1,.37-.843c.131-.257.27-.509.42-.749a9.592,9.592,0,0,1,2.8-2.855,11.459,11.459,0,0,1,3.675-1.592,15.294,15.294,0,0,1,7.224.05h0A17.982,17.982,0,0,1,171.468,77.822Z" transform="translate(-152.447 -72.876)" fill="#f9eb40"/>
      <path id="Path_539" data-name="Path 539" d="M171.284,78.805c4.413,2.225,7.308,6.068,7.938,9.926a8.871,8.871,0,0,1-.78,5.478c-.049.1-.1.2-.156.293A8.534,8.534,0,0,1,176.2,97a10.232,10.232,0,0,1-3.612,1.872,12.119,12.119,0,0,1-2.126.421,14.114,14.114,0,0,1-3.247-.016l-.314-.041a15.718,15.718,0,0,1-3.035-.736,16.783,16.783,0,0,1-2.046-.868,14.482,14.482,0,0,1-7.8-9.242,9.846,9.846,0,0,1-.256-2.638V85.7a8.548,8.548,0,0,1,.56-2.7,7.711,7.711,0,0,1,.341-.777c.12-.237.248-.469.388-.691a8.833,8.833,0,0,1,2.581-2.634,10.6,10.6,0,0,1,3.388-1.467,14.115,14.115,0,0,1,6.661.046h0A16.578,16.578,0,0,1,171.284,78.805Z" transform="translate(-152.663 -73.064)" fill="none" stroke="#f2a100" stroke-width="0.624" opacity="0.4"/>
      <path id="Path_540" data-name="Path 540" d="M153.066,83.66l17.508,17.661a15.283,15.283,0,0,1-3.522-.018l-.341-.044L152.458,86.637v-.053A9.307,9.307,0,0,1,153.066,83.66Z" transform="translate(-152.449 -74.162)" fill="#fff" opacity="0.42"/>
      <path id="Path_541" data-name="Path 541" d="M169.125,76.385h0l12.521,12.2a9.617,9.617,0,0,1-.846,5.941c-.053.108-.111.213-.169.318L161.9,76.335A15.294,15.294,0,0,1,169.125,76.385Z" transform="translate(-154.02 -72.876)" fill="#fff" opacity="0.42"/>
      <path id="Path_542" data-name="Path 542" d="M170.283,82.486c5.217,2.628,7.938,7.752,6.082,11.445a5.432,5.432,0,0,1-1.07,1.455,6.807,6.807,0,0,1-2.914,1.622,12.465,12.465,0,0,1-8.825-1.156c-5.217-2.629-7.94-7.75-6.083-11.44a4.9,4.9,0,0,1,.256-.453l0-.007a5.633,5.633,0,0,1,1.426-1.519,7.634,7.634,0,0,1,3.224-1.316A12.935,12.935,0,0,1,170.283,82.486Z" transform="translate(-153.186 -73.713)" fill="#f4c500"/>
      <path id="Path_543" data-name="Path 543" d="M162.836,81.148l12.911,14.268a6.807,6.807,0,0,1-2.914,1.622L159.612,82.464A7.635,7.635,0,0,1,162.836,81.148Z" transform="translate(-153.639 -73.744)" fill="#c57f2a" opacity="0.38"/>
      <path id="Path_544" data-name="Path 544" d="M176.364,94.527c-1.857,3.689-7.591,4.551-12.808,1.923s-7.939-7.752-6.083-11.441a5.119,5.119,0,0,1,.258-.453c-.081.213-2.46,6.132,5.412,10.68C171.651,100.15,176.364,94.527,176.364,94.527Z" transform="translate(-153.186 -74.311)" fill="#612115" opacity="0.38"/>
      <g id="Group_7343" data-name="Group 7343" transform="translate(7.604 9.955)">
        <g id="Group_7342" data-name="Group 7342">
          <path id="Path_545" data-name="Path 545" d="M161.568,90.178l2.671-5.97,1.3,1.388-.8,1.62s4.824,1.277,4.9,5.429l6.758-1.6-.679,1.366-6.3,1.859-1.549-.769s1.142-2.638-.935-3.695-2.9-.759-2.9-.759l-1.085,2.525Z" transform="translate(-161.568 -84.208)" fill="#f9eb40"/>
          <path id="Path_546" data-name="Path 546" d="M164.921,92.5l.889.912,2.559-5.619-.965-1.015Z" transform="translate(-162.126 -84.635)" fill="#f9eb40"/>
        </g>
      </g>
    </g>
    <g id="Group_7350" data-name="Group 7350" transform="translate(283.335 36.331)">
      <g id="Group_7347" data-name="Group 7347" transform="translate(2.617)">
        <g id="Group_7346" data-name="Group 7346">
          <path id="Path_547" data-name="Path 547" d="M346.973,67.978,350,65.433l-2.184-.449Z" transform="translate(-327.951 -41.096)" fill="#d1a119"/>
          <path id="Path_548" data-name="Path 548" d="M327.643,39l-3.358,2.825,3.117.3Z" transform="translate(-324.178 -36.775)" fill="#d1a119"/>
          <g id="Group_7345" data-name="Group 7345">
            <path id="Path_549" data-name="Path 549" d="M345.655,42.258a18.816,18.816,0,0,1,1.235,1.648c.14.208.274.42.4.634.1.159.191.318.281.479a16.3,16.3,0,0,1,1,2.1q.261.648.458,1.3a14.958,14.958,0,0,1,.5,2.275,13.933,13.933,0,0,1,.133,1.577,12.469,12.469,0,0,1-.055,1.594c-.028.308-.071.61-.123.909A10.989,10.989,0,0,1,348.855,57a9.367,9.367,0,0,1-2.65,3.671,9.2,9.2,0,0,1-2.76,1.6l0,0c-4.77,1.755-11.026-.253-15.271-5.3-4.092-4.87-5.077-11.1-2.861-15.483l0,0a9.325,9.325,0,0,1,2.169-2.8l.038-.033c.032-.03.067-.059.1-.088a9.589,9.589,0,0,1,5.337-2.174,11.644,11.644,0,0,1,2.018-.01c.335.026.669.069,1,.123a13.914,13.914,0,0,1,1.552.347,13.587,13.587,0,0,1,1.43.489,15.864,15.864,0,0,1,1.837.882c.161.09.319.183.48.278.382.229.756.481,1.128.742a18.8,18.8,0,0,1,2.008,1.687c.3.3.6.613.894.937C345.424,41.987,345.54,42.123,345.655,42.258Z" transform="translate(-324.156 -36.331)" fill="#d1a119"/>
          </g>
        </g>
      </g>
      <path id="Path_550" data-name="Path 550" d="M350.194,46.178c.1.159.191.318.281.479a16.3,16.3,0,0,1,1,2.1q.261.648.459,1.3a14.973,14.973,0,0,1,.5,2.275,13.947,13.947,0,0,1,.133,1.577,12.464,12.464,0,0,1-.055,1.594c-2.337,2-5.506,5-5.506,5l-5.4-7.02Z" transform="translate(-324.441 -37.969)" fill="#612115" opacity="0.25"/>
      <path id="Path_551" data-name="Path 551" d="M342.256,38.243l-6.013,5.113-3.333-2.98,4.528-3.85a13.676,13.676,0,0,1,1.551.348,13.909,13.909,0,0,1,1.43.488A16.277,16.277,0,0,1,342.256,38.243Z" transform="translate(-322.995 -36.364)" fill="#f5ff71" opacity="0.42"/>
      <path id="Path_552" data-name="Path 552" d="M342.517,44.895c3.447,4.1,4.69,9.172,3.668,13.286a9.62,9.62,0,0,1-3.119,5.127c-.092.078-.186.151-.281.225a9.282,9.282,0,0,1-3.149,1.591,11.1,11.1,0,0,1-4.4.321,13.153,13.153,0,0,1-2.3-.489,15.324,15.324,0,0,1-3.23-1.4l-.3-.176a17.007,17.007,0,0,1-2.71-2.03,18.15,18.15,0,0,1-1.667-1.739,15.709,15.709,0,0,1-3.828-12.548,10.69,10.69,0,0,1,.872-2.739l.022-.048a9.291,9.291,0,0,1,1.711-2.448,8.587,8.587,0,0,1,.672-.629c.221-.185.449-.362.682-.524a9.588,9.588,0,0,1,3.7-1.521,11.485,11.485,0,0,1,4-.014,15.284,15.284,0,0,1,6.62,2.894l0,0A17.937,17.937,0,0,1,342.517,44.895Z" transform="translate(-321.017 -36.77)" fill="#f9eb40"/>
      <path id="Path_553" data-name="Path 553" d="M342.035,45.674c3.179,3.784,4.324,8.458,3.382,12.251a8.869,8.869,0,0,1-2.876,4.727c-.084.072-.172.14-.259.208a8.552,8.552,0,0,1-2.9,1.467,10.245,10.245,0,0,1-4.058.3,12.123,12.123,0,0,1-2.119-.451,14.146,14.146,0,0,1-2.979-1.3c-.09-.053-.182-.107-.273-.162a15.669,15.669,0,0,1-2.5-1.872,16.841,16.841,0,0,1-1.538-1.6,14.484,14.484,0,0,1-3.53-11.569,9.828,9.828,0,0,1,.8-2.525l.02-.045a8.569,8.569,0,0,1,1.576-2.258,8.029,8.029,0,0,1,.62-.579c.2-.17.414-.333.629-.482a8.834,8.834,0,0,1,3.41-1.4,10.6,10.6,0,0,1,3.693-.013,14.1,14.1,0,0,1,6.1,2.668v0A16.585,16.585,0,0,1,342.035,45.674Z" transform="translate(-321.216 -36.976)" fill="none" stroke="#f2a100" stroke-width="0.624" opacity="0.4"/>
      <path id="Path_554" data-name="Path 554" d="M324.021,42.393l9.127,23.132a15.325,15.325,0,0,1-3.23-1.4l-.3-.176-7.334-19.056.022-.048A9.292,9.292,0,0,1,324.021,42.393Z" transform="translate(-321.229 -37.339)" fill="#fff" opacity="0.42"/>
      <path id="Path_555" data-name="Path 555" d="M341.85,42.064l0,0,6.7,16.149a9.62,9.62,0,0,1-3.119,5.127c-.092.078-.186.151-.281.225l-9.919-24.4A15.284,15.284,0,0,1,341.85,42.064Z" transform="translate(-323.381 -36.803)" fill="#fff" opacity="0.42"/>
      <path id="Path_556" data-name="Path 556" d="M339.96,48.465c3.759,4.471,4.24,10.254,1.078,12.916a5.427,5.427,0,0,1-1.557.915,6.8,6.8,0,0,1-3.317.343A12.465,12.465,0,0,1,328.51,58.1c-3.759-4.471-4.242-10.252-1.08-12.911a5.007,5.007,0,0,1,.413-.315l.006,0a5.633,5.633,0,0,1,1.909-.834,7.621,7.621,0,0,1,3.482.062A12.936,12.936,0,0,1,339.96,48.465Z" transform="translate(-321.737 -37.583)" fill="#f4c500"/>
      <path id="Path_557" data-name="Path 557" d="M334.121,44.094l6.242,18.2a6.8,6.8,0,0,1-3.317.343l-6.406-18.606A7.621,7.621,0,0,1,334.121,44.094Z" transform="translate(-322.618 -37.583)" fill="#c57f2a" opacity="0.38"/>
      <path id="Path_558" data-name="Path 558" d="M341.039,61.582c-3.161,2.659-8.771,1.191-12.529-3.281s-4.241-10.254-1.081-12.913c.133-.112.273-.218.414-.314-.158.163-4.678,4.665.765,11.949C334.49,64.892,341.039,61.582,341.039,61.582Z" transform="translate(-321.737 -37.785)" fill="#612115" opacity="0.38"/>
      <g id="Group_7349" data-name="Group 7349" transform="translate(6.68 9.28)">
        <g id="Group_7348" data-name="Group 7348">
          <path id="Path_559" data-name="Path 559" d="M329.03,51.9l4.808-4.434.649,1.789-1.377,1.171s3.93,3.076,2.366,6.922l6.843,1.189-1.161.988-6.52-.773-1.12-1.318s2.089-1.973.6-3.765-2.367-1.839-2.367-1.839l-1.993,1.892Z" transform="translate(-329.03 -47.463)" fill="#f9eb40"/>
          <path id="Path_560" data-name="Path 560" d="M331.216,55.337l.457,1.189,4.567-4.155-.487-1.313Z" transform="translate(-329.393 -48.061)" fill="#f9eb40"/>
        </g>
      </g>
    </g>
    <g id="Group_7352" data-name="Group 7352" transform="translate(267.964 319.631)">
      <path id="Path_561" data-name="Path 561" d="M339.856,393.24c0,.153,0,.3-.01.454a18.612,18.612,0,0,1-18.707,18.057c-.544,0-1.085-.03-1.619-.08-.242-.02-.484-.046-.723-.079a18.588,18.588,0,0,1-10.892-5.473c-.03-.03-.057-.059-.083-.089a18.613,18.613,0,0,1,5.735-29.852,18.338,18.338,0,0,1,5.477-1.526,17.861,17.861,0,0,1,2.315-.129,18.672,18.672,0,0,1,3.446.338c.3.056.594.123.886.192a18.613,18.613,0,0,1,14.176,18.187Z" transform="translate(-302.626 -374.522)" fill="#f9eb40"/>
      <path id="Path_562" data-name="Path 562" d="M338.359,393.6c0,.137,0,.27-.009.408a16.742,16.742,0,0,1-16.827,16.242,17.017,17.017,0,0,1-2.107-.142A16.744,16.744,0,0,1,304.942,395.1c-.051-.552-.077-1.116-.073-1.682a16.749,16.749,0,0,1,9.831-15.162,16.539,16.539,0,0,1,4.926-1.373A16.746,16.746,0,0,1,338.359,393.6Z" transform="translate(-302.999 -374.895)" fill="none" stroke="#f2a100" stroke-width="0.815" opacity="0.4"/>
      <path id="Path_563" data-name="Path 563" d="M343.225,395.555c0,.153,0,.3-.01.454a18.612,18.612,0,0,1-18.707,18.057c-.544,0-1.085-.03-1.619-.08l18.97-25.543A18.5,18.5,0,0,1,343.225,395.555Z" transform="translate(-305.995 -376.837)" fill="#fff" opacity="0.29"/>
      <path id="Path_564" data-name="Path 564" d="M313.555,376.509l-10.846,18.725c-.057-.614-.086-1.24-.082-1.869A18.62,18.62,0,0,1,313.555,376.509Z" transform="translate(-302.626 -374.853)" fill="#fff" opacity="0.42"/>
      <path id="Path_565" data-name="Path 565" d="M333.14,378.083,314.748,410.23a18.63,18.63,0,0,1-5.808-4.043c-.03-.03-.057-.059-.083-.089l16.972-31.169c.3.056.594.123.886.192A18.547,18.547,0,0,1,333.14,378.083Z" transform="translate(-303.662 -374.59)" fill="#fff" opacity="0.42"/>
      <path id="Path_566" data-name="Path 566" d="M335.311,394.344a12.988,12.988,0,0,1-.81,4.444c-.007.007-.007.01-.007.013a12.931,12.931,0,0,1-12.19,8.4c-.375,0-.746-.02-1.111-.053a12.933,12.933,0,0,1-10.319-18.8.017.017,0,0,0,0-.01,12.935,12.935,0,0,1,24.432,6Z" transform="translate(-303.759 -375.656)" fill="#f4c500"/>
      <path id="Path_567" data-name="Path 567" d="M334.731,388l-12.21,19.643a12.829,12.829,0,0,1-5.095-1.569l13.888-21.769A13.005,13.005,0,0,1,334.731,388Z" transform="translate(-305.087 -376.149)" fill="#c57f2a" opacity="0.38"/>
      <path id="Path_568" data-name="Path 568" d="M334.786,398.78c.76-2.951.78-12.153-7.731-15.381-9.325-3.537-15.656,4.676-15.89,4.945a12.937,12.937,0,0,1,23.621,10.443Z" transform="translate(-304.046 -375.656)" fill="#612115" opacity="0.38"/>
      <g id="Group_7351" data-name="Group 7351" transform="translate(11.491 11.807)">
        <path id="Path_569" data-name="Path 569" d="M318.121,388.988l12.1-.3-1.229,2.062h-3.349s1.854,5.649-4.967,7.864l8.228,6.169H326.08l-8.269-5.561v-2s5.314-.174,5.357-2.868-1.131-3.392-1.131-3.392l-5.081.174Z" transform="translate(-316.5 -388.684)" fill="#f9eb40"/>
        <path id="Path_570" data-name="Path 570" d="M317.19,393.613,316.409,395l11.427-.239.889-1.521Z" transform="translate(-316.409 -389.442)" fill="#f9eb40"/>
      </g>
    </g>
    <g id="Group_7358" data-name="Group 7358" transform="translate(104.869 54.633)">
      <path id="Path_578" data-name="Path 578" d="M163.089,144.111s.271,5.151-3.795,6.777a13.247,13.247,0,0,1,2.981,6.831s1.221-5.778,4.067-6.236C166.342,151.483,162.682,149.4,163.089,144.111Z" transform="translate(-116.448 -72.204)" fill="#ebbe00"/>
      <path id="Path_579" data-name="Path 579" d="M307.7,77.426s.271,5.151-3.8,6.777a13.245,13.245,0,0,1,2.982,6.831s1.22-5.778,4.067-6.236C310.956,84.8,307.3,82.712,307.7,77.426Z" transform="translate(-139.778 -61.468)" fill="#ebbe00"/>
      <path id="Path_580" data-name="Path 580" d="M303.728,206.29s.177,3.351-2.469,4.409a8.618,8.618,0,0,1,1.94,4.443s.793-3.758,2.645-4.056A4.993,4.993,0,0,1,303.728,206.29Z" transform="translate(-139.354 -82.298)" fill="#ebbe00"/>
      <path id="Path_581" data-name="Path 581" d="M146.956,287.243s.177,3.351-2.469,4.409a8.617,8.617,0,0,1,1.94,4.442s.793-3.758,2.644-4.056A4.992,4.992,0,0,1,146.956,287.243Z" transform="translate(-113.986 -95.433)" fill="#ebbe00"/>
      <path id="Path_582" data-name="Path 582" d="M336.559,67.045l1.046-8.76.285,8.91,6.421.968-6.29.38-.973,9.509-.6-9.359-6.739-.749Z" transform="translate(-143.948 -58.284)" fill="#f6f7f9"/>
      <path id="Path_583" data-name="Path 583" d="M114.751,314.471l1.045-8.76.285,8.91,6.421.968-6.29.38-.973,9.509-.6-9.359-6.739-.749Z" transform="translate(-107.901 -98.389)" fill="#f6f7f9"/>
      <path id="Path_584" data-name="Path 584" d="M234.839,123.4l1.046-8.76.285,8.91,6.421.968-6.29.38-.973,9.509-.6-9.359-6.739-.749Z" transform="translate(-127.417 -67.418)" fill="#f6f7f9"/>
      <path id="Path_585" data-name="Path 585" d="M299.233,387.483l1.046-8.76.285,8.91,6.421.968-6.29.38-.973,9.509-.6-9.359-6.739-.749Z" transform="translate(-137.882 -110.223)" fill="#f6f7f9"/>
      <path id="Path_586" data-name="Path 586" d="M127.685,222.831l1.046-8.76.285,8.91,6.421.968-6.29.38-.973,9.509-.6-9.359-6.739-.749Z" transform="translate(-110.052 -83.535)" fill="#f6f7f9"/>
      <path id="Path_587" data-name="Path 587" d="M398.148,274.686l1.046-8.76.285,8.91,6.42.968-6.29.38-.973,9.509-.6-9.359-6.739-.749Z" transform="translate(-153.957 -91.94)" fill="#f6f7f9"/>
      <path id="Path_588" data-name="Path 588" d="M206.775,67.045l1.046-8.76.285,8.91,6.421.968-6.29.38-.973,9.509-.6-9.359-6.739-.749Z" transform="translate(-122.857 -58.284)" fill="#f6f7f9"/>
      <path id="Path_589" data-name="Path 589" d="M262.05,150.778l1.046-8.76.285,8.91,6.421.968-6.289.38-.973,9.509-.6-9.359-6.739-.749Z" transform="translate(-131.839 -71.856)" fill="#f6f7f9"/>
    </g>
  </g>
</svg>
