<svg id="Group_7089" data-name="Group 7089" xmlns="http://www.w3.org/2000/svg" width="64.011" height="63.879" viewBox="0 0 64.011 63.879">
  <ellipse id="Ellipse_242" data-name="Ellipse 242" cx="30.554" cy="29.705" rx="30.554" ry="29.705" transform="translate(0 1.697)"/>
  <g id="Group_7084" data-name="Group 7084" transform="translate(0 0)">
    <g id="Group_5993" data-name="Group 5993" transform="translate(0 0)">
      <g id="Group_5962" data-name="Group 5962" transform="translate(0 0)">
        <g id="Subtraction_289" data-name="Subtraction 289" transform="translate(0 0)" fill="none">
          <path d="M32.072,63.879h-.132A31.948,31.948,0,0,1,19.507,2.51,31.739,31.739,0,0,1,31.939,0h.132A31.948,31.948,0,0,1,44.5,61.369,31.739,31.739,0,0,1,32.072,63.879ZM31.75,2.911a29.037,29.037,0,0,0-11.3,55.777,28.846,28.846,0,0,0,11.3,2.281h.51A29.037,29.037,0,0,0,43.56,5.192a28.846,28.846,0,0,0-11.3-2.281Z" stroke="none"/>
          <path d="M 32.07150268554688 63.87930297851562 L 31.93920135498047 63.87930297851562 C 27.62732124328613 63.87930297851562 23.44446182250977 63.03481292724609 19.50682258605957 61.36928176879883 C 15.70351219177246 59.76058197021484 12.28781223297119 57.45757293701172 9.354601860046387 54.52425003051758 C 6.421401977539062 51.5909309387207 4.118502140045166 48.17513275146484 2.509881973266602 44.37172317504883 C 0.8444520235061646 40.43399047851562 2.020263764279662e-06 36.25109100341797 2.020263764279662e-06 31.93920135498047 C 2.020263764279662e-06 27.62753105163574 0.8444520235061646 23.44480133056641 2.509881973266602 19.5072021484375 C 4.118512153625488 15.70389175415039 6.421411991119385 12.28817176818848 9.354601860046387 9.354931831359863 C 12.28781223297119 6.421671390533447 15.70351219177246 4.118701457977295 19.50682258605957 2.510001420974731 C 23.44449234008789 0.8444914817810059 27.62734222412109 1.489257783759967e-06 31.93920135498047 1.489257783759967e-06 L 32.07150268554688 1.489257783759967e-06 C 36.38336181640625 1.489257783759967e-06 40.56621170043945 0.8444914817810059 44.50388336181641 2.510001420974731 C 48.30719375610352 4.118701457977295 51.72289276123047 6.421671390533447 54.65610122680664 9.354931831359863 C 57.58929061889648 12.28817176818848 59.89219284057617 15.70389175415039 61.50082015991211 19.5072021484375 C 63.16625213623047 23.44480133056641 64.01070404052734 27.62753105163574 64.01070404052734 31.93920135498047 C 64.01070404052734 36.25109100341797 63.16625213623047 40.43399047851562 61.50082015991211 44.37172317504883 C 59.8922004699707 48.17513275146484 57.58930206298828 51.5909309387207 54.65610122680664 54.52425003051758 C 51.72289276123047 57.45757293701172 48.30719375610352 59.76058197021484 44.50388336181641 61.36928176879883 C 40.56624221801758 63.03481292724609 36.38338088989258 63.87930297851562 32.07150268554688 63.87930297851562 Z M 31.75020217895508 2.910601377487183 C 27.83145141601562 2.910601377487183 24.02989196777344 3.678131580352783 20.45111274719238 5.191861629486084 C 16.99442291259766 6.653951644897461 13.88997173309326 8.747051239013672 11.22402191162109 11.41302108764648 C 8.558052062988281 14.07897186279297 6.464951992034912 17.18342208862305 5.002861976623535 20.64011192321777 C 3.489131927490234 24.21889114379883 2.721601963043213 28.02045059204102 2.721601963043213 31.93920135498047 C 2.721601963043213 35.85816192626953 3.489131927490234 39.6599006652832 5.002861976623535 43.23881149291992 C 6.464951992034912 46.69562149047852 8.558052062988281 49.80016326904297 11.22402191162109 52.46617126464844 C 13.88997173309326 55.1321907043457 16.99442291259766 57.22532272338867 20.45111274719238 58.68743133544922 C 24.02988243103027 60.201171875 27.83145141601562 60.96870040893555 31.75020217895508 60.96870040893555 L 32.26050186157227 60.96870040893555 C 36.17925262451172 60.96870040893555 39.9808235168457 60.201171875 43.55959320068359 58.68743133544922 C 47.01628112792969 57.22532272338867 50.12073135375977 55.1321907043457 52.78668212890625 52.46617126464844 C 55.45265197753906 49.80016326904297 57.54575347900391 46.69562149047852 59.00784301757812 43.23881149291992 C 60.52157211303711 39.6599006652832 61.28910064697266 35.85816192626953 61.28910064697266 31.93920135498047 C 61.28910064697266 28.02045059204102 60.52157211303711 24.21889114379883 59.00784301757812 20.64011192321777 C 57.54575347900391 17.18342208862305 55.45265197753906 14.07897186279297 52.78668212890625 11.41302108764648 C 50.12073135375977 8.747051239013672 47.01628112792969 6.653951644897461 43.55959320068359 5.191861629486084 C 39.98081207275391 3.678131580352783 36.17925262451172 2.910601377487183 32.26050186157227 2.910601377487183 L 31.75020217895508 2.910601377487183 Z" stroke="none" fill="#ef9e5e"/>
        </g>
      </g>
    </g>
  </g>
  <path id="Subtraction_323" data-name="Subtraction 323" d="M9.519,25.278h0A12.912,12.912,0,0,1,2.171,22.9,8.774,8.774,0,0,1,0,20.7,39.2,39.2,0,0,1,4.491,3.168,15.944,15.944,0,0,1,13.242,0l.032.007.312.363A21.735,21.735,0,0,0,5.375,4.3c0-.007.007-.007.014-.007.514-.261,1.161-.565,1.824-.858A28.055,28.055,0,0,1,18.048,1.246a26.961,26.961,0,0,1,12.505,3.06A21.648,21.648,0,0,0,22.773.482L23.2.007,23.23,0a15.948,15.948,0,0,1,8.755,3.168,39.234,39.234,0,0,1,4.5,17.533A8.866,8.866,0,0,1,34.3,22.9a12.9,12.9,0,0,1-7.369,2.372c-.009-.018-1.136-1.3-2.065-2.442a9.923,9.923,0,0,0,5.657-3.58,18.462,18.462,0,0,1-3.592,1.78,22.708,22.708,0,0,1-8.519,1.622A23.509,23.509,0,0,1,7.433,19.975c-.016-.007-.08-.045-.168-.1-.33-.178-.8-.444-1.118-.653a9.731,9.731,0,0,0,5.473,3.542c-.923,1.126-2.079,2.487-2.1,2.505ZM23.975,10.785a3.586,3.586,0,0,0-3.644,3.51,3.647,3.647,0,0,0,7.289,0A3.586,3.586,0,0,0,23.975,10.785Zm-10.935,0a3.516,3.516,0,1,0,3.635,3.51A3.584,3.584,0,0,0,13.04,10.785Z" transform="translate(14 19)" fill="#fff"/>
</svg>
