<svg xmlns="http://www.w3.org/2000/svg" width="61.108" height="59.411" viewBox="0 0 61.108 59.411">
  <g id="Group_7092" data-name="Group 7092" transform="translate(-1.674 -2)">
    <g id="Ellipse_245" data-name="Ellipse 245" transform="translate(1.674 2)" fill="none" stroke="#ef9e5e" stroke-width="2">
      <ellipse cx="30.554" cy="29.705" rx="30.554" ry="29.705" stroke="none"/>
      <ellipse cx="30.554" cy="29.705" rx="29.554" ry="28.705" fill="none"/>
    </g>
    <path id="Subtraction_322" data-name="Subtraction 322" d="M13,26c-2.338,0-4.4-.036-5.362-.1a7.681,7.681,0,0,1-5.445-2.1,7.592,7.592,0,0,1-2.1-5.447c-.125-2.156-.125-8.57,0-10.731a7.624,7.624,0,0,1,2.1-5.443A7.662,7.662,0,0,1,7.64.089C8.607.032,10.664,0,13,0S17.4.032,18.364.089a7.7,7.7,0,0,1,5.449,2.1,7.67,7.67,0,0,1,2.1,5.447c.118,2.156.118,8.568,0,10.725a7.687,7.687,0,0,1-2.1,5.447,7.652,7.652,0,0,1-5.449,2.1C17.4,25.968,15.34,26,13,26ZM13,6.336A6.665,6.665,0,1,0,19.668,13,6.672,6.672,0,0,0,13,6.336ZM19.945,4.5A1.559,1.559,0,1,0,21.5,6.061,1.562,1.562,0,0,0,19.945,4.5ZM13,17.336A4.338,4.338,0,1,1,17.338,13,4.34,4.34,0,0,1,13,17.336Z" transform="translate(18.674 18)" fill="#fff"/>
  </g>
</svg>
