<svg id="Group_8393" data-name="Group 8393" xmlns="http://www.w3.org/2000/svg" width="190.19" height="191.634" viewBox="0 0 190.19 191.634">
  <path id="Path_8832" data-name="Path 8832" d="M368.29,31.727c-1.819,0-3.681.058-5.692.178-2.212.13-4.22.336-6.138.634a62.678,62.678,0,0,0-12.064,3.17A58.645,58.645,0,0,0,331.543,42.3a36.328,36.328,0,0,0-8.3,7.614,25.665,25.665,0,0,0-3.357.866,28.251,28.251,0,0,0-5.277,2.4,32.919,32.919,0,0,0-8.668,7.492,37.665,37.665,0,0,0-5.909,9.986,50.137,50.137,0,0,0-1.646,5.107l-.173.606-.166.584c-.486,1.717-.989,3.494-1.559,5.214a40.9,40.9,0,0,1-2.424,5.9,28.558,28.558,0,0,1-3.952,5.621c-.993,1.061-2.091,2.048-3.151,3q-.507.455-1.01.914c-1.408,1.286-2.793,2.6-4.118,3.915a84.03,84.03,0,0,0-7.976,8.969,41.069,41.069,0,0,0-5.754,10.024,25.67,25.67,0,0,0-1.414,5.338,20.409,20.409,0,0,0-.072,5.42,19.451,19.451,0,0,0,1.9,6.27,23.749,23.749,0,0,0,1.958,3.242,27.5,27.5,0,0,0,2.531,3.05c1,1.055,2.091,2.062,3.147,3.034a34.437,34.437,0,0,1,5.539,5.984,13.459,13.459,0,0,1,1.279,2.637,12.33,12.33,0,0,1,.509,2.8,18.167,18.167,0,0,1-.459,4.248,33.756,33.756,0,0,1-1.727,5.1c-.3.714-.609,1.423-.92,2.132-.414.945-.829,1.889-1.213,2.848a28.128,28.128,0,0,0-1.585,5.379,20.243,20.243,0,0,0-.106,6.167,31.7,31.7,0,0,0,1.4,5.861,30.338,30.338,0,0,0,2.232,5.129,33.164,33.164,0,0,0,3.119,4.67,35.7,35.7,0,0,0,3.869,4.095,39.451,39.451,0,0,0,15.231,8.407,42.662,42.662,0,0,0,5.819,1.291.862.862,0,0,0,.134.011,1.028,1.028,0,0,0,.512-.145c13.5,3.536,27.309,4.173,37.834,4.33q3.664.056,7.332.054c3.852,0,8.077-.039,13.3-.126,3.358-.054,6.719-.11,10.08-.137,1.323-.011,2.646-.011,3.968-.013,2.168,0,4.409-.006,6.615-.048,5.135-.1,10.527-.329,16.484-.705,2.994-.185,5.651-.371,8.122-.569l1.7-.131c2.014-.154,4.1-.313,6.133-.563,1.072-.117,2.234-.284,3.55-.51a51.267,51.267,0,0,0,6.014-1.471,43.94,43.94,0,0,0,5.779-2.222,42.258,42.258,0,0,0,5.211-2.872,39.85,39.85,0,0,0,4.72-3.574A33.309,33.309,0,0,0,450.6,200.7a27.886,27.886,0,0,0,5.1-10,28.632,28.632,0,0,0,.768-3.955,27.336,27.336,0,0,0,.192-4.016,33.851,33.851,0,0,0-1.435-8.741,46.731,46.731,0,0,0-4.283-9.434l-.5-.888a63.518,63.518,0,0,1-4.139-8.284c-.3-.826-.555-1.666-.77-2.495a20.107,20.107,0,0,1-.513-2.946,20.739,20.739,0,0,1,.209-4.775,28.607,28.607,0,0,1,2.278-6.743c.435-.9.938-1.87,1.533-2.955.339-.617.691-1.227,1.045-1.837.336-.581.671-1.162.995-1.75a29.455,29.455,0,0,0,2.852-7.327,26.781,26.781,0,0,0,.706-7.221,30.247,30.247,0,0,0-1.141-7.029,38.206,38.206,0,0,0-2.67-6.75,50.421,50.421,0,0,0-3.854-6.375,72.527,72.527,0,0,0-4.721-6.028c-.717-.83-1.525-1.722-2.467-2.728-.658-.7-1.333-1.382-2.007-2.065l-.714-.725a45.006,45.006,0,0,1-4.548-5.485A109.861,109.861,0,0,1,425.02,66.9c-1.557-3.082-3.168-6.268-4.957-9.288a49.724,49.724,0,0,0-7.942-10.383,41.919,41.919,0,0,0-5.488-4.478,59.468,59.468,0,0,0-6.723-3.989A62.66,62.66,0,0,0,385.577,33.6a76.371,76.371,0,0,0-15.2-1.849c-.695-.02-1.394-.027-2.089-.027" transform="translate(-266.473 -31.727)" fill="#e53047"/>
  <path id="Path_8833" data-name="Path 8833" d="M369.677,50.341c-1.365.013-2.728.061-4.09.164s-2.693.24-4.031.418h.007a65.762,65.762,0,0,0-8.489,1.728c-1.383.384-2.756.8-4.107,1.277q-1.911.668-3.776,1.452l.052-.021a57.375,57.375,0,0,0-6.336,3.149c-1,.585-1.988,1.194-2.95,1.842-.876.591-1.739,1.208-2.578,1.851h0l.008-.006-.008.006-.005.008-.01.007a43.465,43.465,0,0,0-4.1,3.583c-.636.637-1.256,1.287-1.851,1.965q-.8.912-1.542,1.865l0,0,0,0,0,0-.005.006h0l-.024.034.007-.01-.01.01h0a30.41,30.41,0,0,0-1.914,2.749c-.342.565-.67,1.14-.968,1.732q-.431.857-.808,1.738h0a29.355,29.355,0,0,0-1.383,4.17c-.174.715-.336,1.434-.469,2.156q-.175.954-.308,1.913c0-.013,0-.027.007-.04-.086.636-.165,1.279-.223,1.92-.219,2.345-.294,4.7-.3,7.055,0,2.389.055,4.775.086,7.161s.045,4.75-.072,7.122c-.059,1.219-.14,2.434-.281,3.642-.116,1.033-.253,2.064-.444,3.083a33.835,33.835,0,0,1-.829,3.5c-.157.53-.322,1.058-.513,1.577s-.39,1.041-.605,1.554c-.223.534-.465,1.061-.729,1.578s-.524,1.006-.815,1.5a18.447,18.447,0,0,1-1.6,2.266,30.276,30.276,0,0,1-2.177,2.358c-.709.695-1.434,1.372-2.163,2.047-.781.729-1.568,1.455-2.314,2.221-.342.349-.681.7-1.006,1.068s-.637.733-.938,1.115A16.641,16.641,0,0,0,304,136.389c-.167.277-.336.558-.483.849s-.291.588-.424.889l.02-.051a13.254,13.254,0,0,0-.589,1.677c-.1.383-.2.767-.266,1.157-.055.284-.1.568-.137.853v0a.01.01,0,0,0,0,.01s0-.007,0-.007a11.452,11.452,0,0,0-.1,1.578c.007.253.01.51.034.763.014.168.031.332.052.5v-.018a9.885,9.885,0,0,0,.284,1.373c.068.229.133.455.216.677s.171.438.26.654l-.02-.051a13.259,13.259,0,0,0,.886,1.681c.175.273.353.548.541.814s.37.513.562.763l0,0c.007.007.011.014.014.018l-.01-.014a.169.169,0,0,1,.024.031.038.038,0,0,0-.01-.011l.014.017,0,0,0,0,0,0q.3.389.615.768.6.719,1.229,1.418c.377.421.76.835,1.133,1.256a23.887,23.887,0,0,1,1.851,2.334,16.069,16.069,0,0,1,1.465,2.56,12.326,12.326,0,0,1,.743,2.112,10.264,10.264,0,0,1,.191,4.166,12.01,12.01,0,0,1-.544,2.17,16.727,16.727,0,0,1-.78,1.844,28.958,28.958,0,0,1-2.461,3.995c-.975,1.362-2.006,2.683-3.022,4.011-1.047,1.366-2.085,2.742-3.026,4.182-.49.75-.962,1.51-1.386,2.3-.391.726-.754,1.462-1.075,2.219.007-.018.018-.034.025-.052a19.212,19.212,0,0,0-.815,2.327c-.11.4-.208.8-.287,1.212q-.1.528-.178,1.058a.23.23,0,0,1-.007.045c0-.014,0-.031.007-.045V190.4a27.369,27.369,0,0,0-.251,3.816c.007.63.028,1.26.079,1.886.041.538.1,1.072.165,1.605v-.013a29.592,29.592,0,0,0,.8,3.888c.2.688.4,1.373.643,2.047q.319.883.678,1.752l-.021-.051a33.929,33.929,0,0,0,2.057,4.094c.414.7.846,1.389,1.307,2.06.407.592.825,1.171,1.26,1.738q.421.544.86,1.073.555.177,1.132.348a42.58,42.58,0,0,0,5.829,1.3.867.867,0,0,0,.134.01.979.979,0,0,0,.517-.151c13.506,3.543,27.31,4.179,37.828,4.336q3.666.057,7.331.055c3.748,0,7.975-.041,13.3-.127,3.358-.054,6.718-.11,10.079-.137.743-.011,1.49-.011,2.232-.014h1.739l.479,0,.476,0c1.865,0,3.775,0,5.658-.041,5.2-.106,10.589-.335,16.484-.7,2.906-.181,5.562-.366,8.123-.569l1.7-.13.158-.014c1.858-.144,3.97-.3,5.972-.551,1.037-.116,2.2-.284,3.553-.51,1.165-.2,2.383-.474,3.734-.831.754-.647,1.487-1.318,2.191-2.017.619-.616,1.221-1.242,1.8-1.9.5-.571.989-1.16,1.462-1.759v0l.007-.01-.007.007.019-.024.009-.011,0,0a33.558,33.558,0,0,0,2.424-3.571c.346-.591.678-1.187.979-1.8s.589-1.233.856-1.862l-.021.051a27.672,27.672,0,0,0,1.174-3.4c.158-.585.3-1.174.425-1.769s.225-1.2.311-1.811l-.01.059a27.4,27.4,0,0,0,.253-3.751,28.528,28.528,0,0,0-.219-3.512v.006a15.365,15.365,0,0,0-.441-2.112c-.086-.291-.175-.585-.281-.873s-.208-.557-.322-.835l.02.052a16.3,16.3,0,0,0-1.1-2.14c-.4-.654-.839-1.28-1.3-1.9v0a.023.023,0,0,1-.007-.01.087.087,0,0,1-.018-.025l-.009-.011.007.007q-.848-1.067-1.773-2.067c-.582-.627-1.173-1.236-1.773-1.845-.643-.654-1.294-1.3-1.923-1.971-.578-.605-1.151-1.225-1.684-1.868a22.23,22.23,0,0,1-1.533-2.041,15.619,15.619,0,0,1-1.215-2.187,14.024,14.024,0,0,1-.811-2.29,14.951,14.951,0,0,1-.421-2.639,16.81,16.81,0,0,1,.075-3.135,21.192,21.192,0,0,1,.476-2.618c.25-1,.551-1.975.9-2.941.322-.893.668-1.78,1.03-2.656.393-.952.8-1.9,1.194-2.848.359-.869.719-1.742,1.041-2.625s.62-1.752.859-2.649c.12-.442.233-.887.322-1.339s.172-.9.233-1.352c0,.014,0,.025,0,.034a15.555,15.555,0,0,0,.14-2.04c0-.311-.006-.623-.027-.934-.017-.294-.048-.592-.082-.883a13.465,13.465,0,0,0-.379-1.923c-.093-.329-.185-.661-.3-.982s-.246-.664-.38-1c.007.017.014.038.021.054a15.441,15.441,0,0,0-.966-1.93c-.171-.284-.349-.564-.541-.835-.133-.185-.267-.366-.407-.551a17.719,17.719,0,0,0-1.8-1.93c-.581-.53-1.178-1.03-1.8-1.511l0,0,0,0,.008,0-.02-.015.01.009a.157.157,0,0,1-.031-.025.042.042,0,0,1,.013.01.069.069,0,0,0-.017-.014l0,0c-.623-.476-1.26-.938-1.9-1.4-.657-.465-1.318-.931-1.964-1.406-.6-.442-1.192-.89-1.759-1.369a21.2,21.2,0,0,1-1.609-1.462,15.864,15.864,0,0,1-1.469-1.712,13.785,13.785,0,0,1-1.325-2.17,21.006,21.006,0,0,1-1.03-2.567,27.455,27.455,0,0,1-.719-2.666q-.329-1.525-.541-3.07c-.13-.948-.239-1.9-.332-2.857-.188-1.924-.322-3.855-.506-5.778-.372-3.9-.712-7.806-1.229-11.69v.011c0-.018,0-.031-.007-.045a.187.187,0,0,1,.006.032c0-.016,0-.031-.006-.046v.014a79.436,79.436,0,0,0-1.489-8.153c-.325-1.335-.689-2.666-1.116-3.974-.216-.654-.438-1.3-.681-1.948-.208-.55-.425-1.1-.654-1.646l0,.006a39.63,39.63,0,0,0-2.24-4.491c-.411-.7-.835-1.39-1.291-2.06s-.931-1.328-1.427-1.975h0l0,.006,0-.006h0l-.009-.013-.009-.011-.005-.007,0,0,0,0,0,0,0,0h0a36.418,36.418,0,0,0-3.155-3.539c-.511-.5-1.027-.98-1.565-1.441s-1.067-.9-1.622-1.327a38.438,38.438,0,0,0-4.207-2.814c-.743-.425-1.492-.832-2.259-1.212s-1.547-.736-2.338-1.075a.14.14,0,0,1,.024.014,46.352,46.352,0,0,0-6.342-2.156c-1.065-.278-2.136-.527-3.217-.74s-2.187-.39-3.289-.541l.059.011a59.657,59.657,0,0,0-7.807-.516l-.5,0m21.1,3.94.028.011-.028-.011m-88.673,90.268a.177.177,0,0,1,.007.041c0-.013,0-.027-.007-.041m-3.577,53.1a.169.169,0,0,1,.007.045c0-.014,0-.031-.007-.045" transform="translate(-270.411 -34.031)" fill="#cf2a40"/>
  <path id="Path_8834" data-name="Path 8834" d="M338.328,63.883h0l0-.007-.007.007" transform="translate(-275.367 -35.706)" fill="#cf2a40"/>
  <path id="Path_8835" data-name="Path 8835" d="M338.3,63.906l.01-.007-.01.007" transform="translate(-275.363 -35.709)" fill="#cf2a40"/>
  <path id="Path_8836" data-name="Path 8836" d="M421.114,67.86l0,0-.009-.011Z" transform="translate(-285.612 -36.198)" fill="#cf2a40"/>
  <path id="Path_8837" data-name="Path 8837" d="M421.124,67.875h0l-.009-.01.005.01" transform="translate(-285.614 -36.2)" fill="#cf2a40"/>
  <path id="Path_8838" data-name="Path 8838" d="M426.8,77.638l-.008-.018a.169.169,0,0,0,.008.018" transform="translate(-286.316 -37.407)" fill="#cf2a40"/>
  <path id="Path_8839" data-name="Path 8839" d="M310.2,170.6" transform="translate(-271.884 -48.915)" fill="#cf2a40"/>
  <path id="Path_8840" data-name="Path 8840" d="M460.928,200.234l-.007-.006a.009.009,0,0,0,.007.006" transform="translate(-290.54 -52.583)" fill="#cf2a40"/>
  <path id="Path_8841" data-name="Path 8841" d="M457.788,233.52l0,0,0,0Z" transform="translate(-290.152 -56.703)" fill="#cf2a40"/>
  <path id="Path_8842" data-name="Path 8842" d="M377.713,168.347a88.3,88.3,0,0,0-13.787,2.314l-.179.034-1.1.243-1.1.239a.451.451,0,0,0-.185-.171.654.654,0,0,0-.346-.1.582.582,0,0,0-.174.031.676.676,0,0,0-.407.315.75.75,0,0,0-.075.517l.031.206a42.375,42.375,0,0,1,.072,10.849l-.01.089a34.773,34.773,0,0,1-1.086,5.059l0,0c.544.26,1.1.51,1.657.75a39.226,39.226,0,0,0,4.83,1.66,39.326,39.326,0,0,0,15.422,1.007,38.767,38.767,0,0,0,5-1.01,39.215,39.215,0,0,0,4.772-1.639c.545-.233,1.08-.474,1.639-.718a34.328,34.328,0,0,1-1.068-5l-.034-.167a42.587,42.587,0,0,1,.092-10.786l.021-.137a.809.809,0,0,0-.065-.585.72.72,0,0,0-.154-.188.609.609,0,0,0-.3-.373,20.769,20.769,0,0,0-6.466-2.153,29.1,29.1,0,0,0-4.676-.359c-.708,0-1.469.024-2.327.072" transform="translate(-277.971 -48.628)" fill="#f6cfbe"/>
  <path id="Path_8843" data-name="Path 8843" d="M377.71,168.324a88.806,88.806,0,0,0-13.794,2.314l-.174.031-1.1.243-1.1.24a.33.33,0,0,0-.171-.161.649.649,0,0,0-.353-.106.583.583,0,0,0-.181.038.678.678,0,0,0-.417.322.77.77,0,0,0-.079.524l.031.205a42.375,42.375,0,0,1,.072,10.85l-.01.089a34.608,34.608,0,0,1-1.085,5.07l.012.005.005-.016h0l0,0c.544.26,1.1.51,1.657.749a39.242,39.242,0,0,0,4.83,1.66,39.877,39.877,0,0,0,4.925,1,39.367,39.367,0,0,0,5.281.353,40.271,40.271,0,0,0,5.216-.346,38.767,38.767,0,0,0,5-1.009,39.518,39.518,0,0,0,4.772-1.639c.534-.229,1.059-.464,1.6-.7l.048-.022a34.423,34.423,0,0,1-1.061-4.995l-.034-.174a42.488,42.488,0,0,1,.093-10.778l.02-.137a.806.806,0,0,0-.068-.592.73.73,0,0,0-.158-.195.6.6,0,0,0-.308-.373,20.928,20.928,0,0,0-6.473-2.163,29.531,29.531,0,0,0-4.679-.356c-.691,0-1.451.024-2.327.072" transform="translate(-277.968 -48.625)" fill="#dc8c66"/>
  <path id="Path_8844" data-name="Path 8844" d="M375.945,39.394A85.992,85.992,0,0,0,361.018,40.7a66.034,66.034,0,0,0-15.59,4.728,47.337,47.337,0,0,0-6.908,3.806,45.575,45.575,0,0,0-6.29,5.043A42.437,42.437,0,0,0,323.4,66.37c-3.888,7.924-5.607,17.39-5.255,28.937.1,3.041.332,6.167.719,9.554a.992.992,0,0,0,.042.194,11.337,11.337,0,0,0-3.032-.408,10.965,10.965,0,0,0-2.209.223,9.811,9.811,0,0,0-1.49.452,8.606,8.606,0,0,0-1.515.795,8.393,8.393,0,0,0-2.011,1.809,9.521,9.521,0,0,0-1.933,4.646,14.084,14.084,0,0,0-.1,2.636,17,17,0,0,0,.356,2.655,22.235,22.235,0,0,0,1.815,5.178,20.08,20.08,0,0,0,2.733,4.229,20.874,20.874,0,0,0,2.247,2.195,24.612,24.612,0,0,0,8.951,4.807,21.52,21.52,0,0,0,3.29.682c.205.027.41.047.617.068a44.459,44.459,0,0,0,7,13.178,45.332,45.332,0,0,0,11.92,10.787,44.292,44.292,0,0,0,14.724,5.854,45.645,45.645,0,0,0,7.8.876c.369.011.742.018,1.112.018a46.547,46.547,0,0,0,6.665-.5,44.27,44.27,0,0,0,15.269-5.217,45.092,45.092,0,0,0,17.935-18.5l.047-.086.048-.092c.129-.258.254-.509.377-.76l.061-.12.062-.127c.378-.788.721-1.557,1.047-2.352l.1-.23.045-.106.059-.14.068-.178.047-.117.055-.14.034-.086c.253-.668.49-1.322.711-1.983l.048-.137.041-.124.075-.225.045-.147.065-.206.052-.167.04-.137.041-.134c.285-.042.578-.079.869-.114l.332-.038a21.511,21.511,0,0,0,3.29-.681,24.612,24.612,0,0,0,8.951-4.807,20.873,20.873,0,0,0,2.247-2.195,20.016,20.016,0,0,0,2.733-4.229,22.189,22.189,0,0,0,1.814-5.178,16.932,16.932,0,0,0,.357-2.654,14.049,14.049,0,0,0-.1-2.634,9.512,9.512,0,0,0-1.933-4.648,8.4,8.4,0,0,0-2.011-1.81,8.667,8.667,0,0,0-1.515-.794,9.917,9.917,0,0,0-1.49-.453,11.191,11.191,0,0,0-2.21-.219,13.98,13.98,0,0,0-4.274.712q-.468.154-.924.329a80.7,80.7,0,0,0,2.059-17.187,83.5,83.5,0,0,0-.37-9.178,53.512,53.512,0,0,0-1.274-7.641,42.347,42.347,0,0,0-5.495-12.752,39.357,39.357,0,0,0-9.13-9.953,38.441,38.441,0,0,0-12.119-6.255,40.914,40.914,0,0,0-7.018-1.472c-1.326-.161-2.648-.251-3.784-.322-1.3-.076-2.586-.125-3.936-.147q-.678-.011-1.353-.011" transform="translate(-271.44 -32.676)" fill="#f6cfbe"/>
  <path id="Path_8845" data-name="Path 8845" d="M323.5,137.876a7.9,7.9,0,0,1-1.072-1.114,10.817,10.817,0,0,1-1.34-2.351,14.753,14.753,0,0,1-.958-7.405,10.925,10.925,0,0,1,.682-2.532c.11-.244.234-.481.363-.718a.726.726,0,0,0,.039-.122.641.641,0,0,0,.013-.663,4.874,4.874,0,0,0-.338-.555,5.021,5.021,0,0,0-.565-.636,6.558,6.558,0,0,0-1.291-.945,9.269,9.269,0,0,0-1.509-.682,10.491,10.491,0,0,0-1.705-.469,12.113,12.113,0,0,0-1.649-.164c-.106-.005-.214-.007-.322-.007a8.334,8.334,0,0,0-1.28.1,6.456,6.456,0,0,0-2.749,1.037.218.218,0,1,0,.226.372,4.532,4.532,0,0,1,.711-.4,5.6,5.6,0,0,1,1.172-.337,8.284,8.284,0,0,1,1.993-.029,9.582,9.582,0,0,1,1.251.228c.409.1.818.227,1.215.371a10.036,10.036,0,0,1,2.015,1.066,9.109,9.109,0,0,1,.983.825c.153.15.287.317.427.479a10.418,10.418,0,0,0-.931,3.657,13.687,13.687,0,0,0-.011,2.05,16.978,16.978,0,0,0,.3,2.235,15.573,15.573,0,0,0,1.41,4.029,10.2,10.2,0,0,0,2.434,3.152.346.346,0,0,0,.483,0A.339.339,0,0,0,323.5,137.876Z" transform="translate(-271.824 -42.593)" fill="#dc8c66"/>
  <path id="Path_8846" data-name="Path 8846" d="M443.186,118.74a6.457,6.457,0,0,0-2.749-1.037,8.337,8.337,0,0,0-1.28-.1c-.108,0-.215,0-.322.008a12.106,12.106,0,0,0-1.649.164,10.491,10.491,0,0,0-1.705.469,9.27,9.27,0,0,0-1.509.682,6.558,6.558,0,0,0-1.291.945,5.016,5.016,0,0,0-.565.636,4.891,4.891,0,0,0-.338.555.643.643,0,0,0,.013.663.758.758,0,0,0,.039.122c.129.237.252.472.363.717a10.881,10.881,0,0,1,.682,2.533,15,15,0,0,1-.018,3.883,14.84,14.84,0,0,1-.939,3.522,10.811,10.811,0,0,1-1.339,2.351,7.947,7.947,0,0,1-1.073,1.113.341.341,0,0,0,0,.479.347.347,0,0,0,.483,0,10.2,10.2,0,0,0,2.434-3.152,15.575,15.575,0,0,0,1.41-4.029,16.991,16.991,0,0,0,.3-2.235,13.7,13.7,0,0,0-.01-2.05,10.419,10.419,0,0,0-.931-3.657c.139-.162.273-.329.427-.479a9.124,9.124,0,0,1,.983-.826,10.083,10.083,0,0,1,2.015-1.066c.4-.144.806-.266,1.215-.37a9.639,9.639,0,0,1,1.251-.228,8.24,8.24,0,0,1,1.993.029,5.586,5.586,0,0,1,1.172.337,4.6,4.6,0,0,1,.711.4.218.218,0,1,0,.226-.372Z" transform="translate(-286.64 -42.356)" fill="#dc8c66"/>
  <path id="Path_8847" data-name="Path 8847" d="M352.637,190.758h0c-.332,1.065-.7,2.1-1.108,3.085a27.438,27.438,0,0,1-3.432,5.914,25.961,25.961,0,0,1-4.509,4.5,27.641,27.641,0,0,1-2.518,1.7c-.962.576-1.966,1.072-2.833,1.492l-2.188,1.051c-1.136.544-2.266,1.088-3.4,1.643a105.573,105.573,0,0,0-10.67,5.8,42.432,42.432,0,0,0-9.021,7.459,31.374,31.374,0,0,0-3.509,4.776,30.748,30.748,0,0,0-2.622,5.649,38.268,38.268,0,0,0-1.222,4.45,27.6,27.6,0,0,0-.637,4.729l30.4.039h98.244a24.726,24.726,0,0,0-.593-4.669,39.572,39.572,0,0,0-1.227-4.454,30.5,30.5,0,0,0-2.623-5.65,31.845,31.845,0,0,0-3.509-4.776,42.367,42.367,0,0,0-9.021-7.458,106.232,106.232,0,0,0-10.67-5.8q-1.694-.831-3.392-1.643l-2.194-1.051c-.922-.449-1.9-.933-2.833-1.492a28.05,28.05,0,0,1-2.518-1.7,25.817,25.817,0,0,1-4.51-4.5,27.579,27.579,0,0,1-3.432-5.913,30.66,30.66,0,0,1-1.1-3.138c-.567.244-1.108.487-1.658.724a39.084,39.084,0,0,1-4.77,1.639,38.575,38.575,0,0,1-5,1.013,39.61,39.61,0,0,1-10.5-.006,39.765,39.765,0,0,1-4.928-1,38.669,38.669,0,0,1-4.827-1.66c-.555-.239-1.113-.489-1.657-.749h0" transform="translate(-271.237 -51.411)" fill="#0b2135"/>
  <path id="Path_8848" data-name="Path 8848" d="M328.347,65.76l-.011-.025-.01-.026Z" transform="translate(-274.129 -35.933)" fill="#f2c5b0"/>
  <path id="Path_8849" data-name="Path 8849" d="M333.5,74.9l0,0,0,0" transform="translate(-274.768 -37.071)" fill="#f2c5b0"/>
  <path id="Path_8850" data-name="Path 8850" d="M397.225,107.142Z" transform="translate(-282.656 -41.061)" fill="#f2c5b0"/>
  <path id="Path_8851" data-name="Path 8851" d="M333.492,74.9l-.01-.012.01.012" transform="translate(-274.767 -37.069)" fill="#f2c5b0"/>
  <g id="Group_8392" data-name="Group 8392" transform="translate(54.167 6.696)">
    <path id="Path_8852" data-name="Path 8852" d="M381.577,102.958c-.006,0-.01,0-.013-.007l-.01,0Z" transform="translate(-334.883 -47.238)" fill="#f2c5b0"/>
    <path id="Path_8853" data-name="Path 8853" d="M355.346,83.287a.068.068,0,0,1,0-.028.044.044,0,0,0,0,.021Z" transform="translate(-331.64 -44.801)" fill="#f2c5b0"/>
    <path id="Path_8854" data-name="Path 8854" d="M420.476,104.463l-.039.015-.012.005Z" transform="translate(-339.694 -47.426)" fill="#f2c5b0"/>
    <path id="Path_8855" data-name="Path 8855" d="M352.24,86.654h0l-.053.011Z" transform="translate(-331.249 -45.222)" fill="#f2c5b0"/>
    <path id="Path_8856" data-name="Path 8856" d="M422.756,77.943a53.442,53.442,0,0,0-1.277-7.649,42.387,42.387,0,0,0-5.494-12.75,39.367,39.367,0,0,0-9.135-9.96,38.285,38.285,0,0,0-12.127-6.254,40.856,40.856,0,0,0-7.02-1.482c-1.332-.161-2.636-.247-3.782-.322-1.38-.074-2.666-.123-3.937-.146q-.677-.011-1.356-.011a86.512,86.512,0,0,0-14.93,1.307,66.375,66.375,0,0,0-15.6,4.737A46.934,46.934,0,0,0,341.2,49.22a45.649,45.649,0,0,0-6.291,5.042,42.145,42.145,0,0,0-6.613,8.109c.014.033.028.068.041.1a37.3,37.3,0,0,0,2.036,4.215,35.463,35.463,0,0,0,2.485,3.817h0a33.355,33.355,0,0,0,2.75,3.211,32.945,32.945,0,0,0,3.169,2.844l.01.007a.1.1,0,0,1,.018.014l.012.011h0a25.467,25.467,0,0,0,2.851,1.948,22.73,22.73,0,0,0,2.56,1.259l-.055-.02a14.257,14.257,0,0,0,3.526,1.009,6.66,6.66,0,0,0,1.59.014,4.442,4.442,0,0,0,.871-.223,3.114,3.114,0,0,0,.66-.37,3.052,3.052,0,0,0,.486-.483,3.78,3.78,0,0,0,.38-.657A5.068,5.068,0,0,0,352,77.848a.124.124,0,0,1,0-.038v.017a.066.066,0,0,1,0-.027l0,0c.027-.243.045-.49.054-.729a5.65,5.65,0,0,0-.016-.646c.008-.172.022-.344.019-.515,0-.056-.008-.111-.011-.167s0-.118,0-.178a.2.2,0,0,1,.14.089c.016.024.032.046.047.071a34.614,34.614,0,0,0,2.928,4.633l0-.007a41.931,41.931,0,0,0,7.774,7.8c-.014-.014-.032-.025-.045-.038a52.761,52.761,0,0,0,12.059,6.955l0,0c.008,0,.019.008.03.012a54.269,54.269,0,0,0,13.691,3.669h0a.105.105,0,0,0,.033,0h0l.016,0h0a45.136,45.136,0,0,0,11.391.034h0a36.708,36.708,0,0,0,4.432-.859c.736-.2,1.465-.407,2.187-.65.781-.263,1.552-.553,2.316-.861a46.18,46.18,0,0,0,5.525-2.7,50.184,50.184,0,0,0,5.066-3.338h0q1.807-1.364,3.494-2.886l.008-.382A83.455,83.455,0,0,0,422.756,77.943Z" transform="translate(-328.291 -39.369)" fill="#f2c5b0"/>
  </g>
  <path id="Path_8857" data-name="Path 8857" d="M351.506,193.84a27.2,27.2,0,0,1-3.43,5.9,25.851,25.851,0,0,1-4.507,4.5,27.38,27.38,0,0,1-2.516,1.7c-.945.562-1.917,1.051-2.831,1.492l-2.187,1.051c-1.136.545-2.266,1.089-3.4,1.643a105.9,105.9,0,0,0-10.672,5.8,42.467,42.467,0,0,0-9.022,7.461,31.176,31.176,0,0,0-3.512,4.782,30.55,30.55,0,0,0-2.625,5.652,39.056,39.056,0,0,0-1.226,4.449,28.141,28.141,0,0,0-.636,4.733l13.39.027a22.536,22.536,0,0,1,.8-5.346,25.926,25.926,0,0,1,2.108-5.244,38.56,38.56,0,0,1,7.16-9.262,73.936,73.936,0,0,1,9.378-7.643q2.418-1.689,4.912-3.261c.879-.558,1.766-1.106,2.625-1.695q1.334-.913,2.611-1.91l-.045.035a43.128,43.128,0,0,0,3.981-3.533,37.99,37.99,0,0,0,3.314-3.834l0,.007a33.5,33.5,0,0,0,2.351-3.611A32.692,32.692,0,0,0,359.4,193.8a.548.548,0,0,0-.02.054c.074-.192.146-.383.219-.578h0l-.005.014-.237-.059-.236-.065a38.988,38.988,0,0,1-4.826-1.66c-.486-.209-.973-.424-1.451-.65l-.225-.091c-.37,1.151-.733,2.156-1.114,3.073m3.7,7.472c-.007.011-.014.018-.02.027.006-.01.013-.017.02-.027" transform="translate(-271.234 -51.412)" fill="#071826"/>
  <path id="Path_8858" data-name="Path 8858" d="M357.242,238.386a7.868,7.868,0,0,0-2.211,1.732,5.2,5.2,0,0,0-.908,1.273c-.126.3-.322.986.274.986a2.449,2.449,0,0,0,1.167-.35,7.866,7.866,0,0,0,2.211-1.731,5.22,5.22,0,0,0,.908-1.273c.126-.3.322-.986-.274-.986a2.434,2.434,0,0,0-1.167.349" transform="translate(-277.305 -57.262)" fill="#b1d6db"/>
  <path id="Path_8859" data-name="Path 8859" d="M352.361,218.722a7.568,7.568,0,0,0-2.112,1.653,5.042,5.042,0,0,0-.866,1.214c-.12.291-.309.942.263.942a2.378,2.378,0,0,0,1.113-.332,7.582,7.582,0,0,0,2.112-1.653,5.057,5.057,0,0,0,.866-1.215c.12-.291.308-.941-.263-.941a2.388,2.388,0,0,0-1.113.332" transform="translate(-276.719 -54.831)" fill="#b1d6db"/>
  <path id="Path_8860" data-name="Path 8860" d="M380.113,225.439a5.809,5.809,0,0,0-1.623,1.27,3.8,3.8,0,0,0-.663.931c-.093.226-.237.726.2.726a1.8,1.8,0,0,0,.853-.257,5.793,5.793,0,0,0,1.622-1.27,3.873,3.873,0,0,0,.664-.931c.093-.226.237-.725-.2-.725a1.8,1.8,0,0,0-.853.257" transform="translate(-280.243 -55.671)" fill="#b1d6db"/>
  <path id="Path_8861" data-name="Path 8861" d="M338.7,241.44a6.753,6.753,0,0,0-1.882,1.476,4.354,4.354,0,0,0-.77,1.081c-.106.26-.274.839.236.839a2.1,2.1,0,0,0,.993-.294,6.706,6.706,0,0,0,1.88-1.476,4.389,4.389,0,0,0,.773-1.081c.106-.26.274-.839-.236-.839a2.1,2.1,0,0,0-.993.294" transform="translate(-275.07 -57.647)" fill="#b1d6db"/>
  <path id="Path_8862" data-name="Path 8862" d="M323.1,233.461a6.23,6.23,0,0,0-1.736,1.356c-.134.147-1.448,1.773-.492,1.773a1.936,1.936,0,0,0,.914-.273,6.256,6.256,0,0,0,1.735-1.356c.134-.147,1.448-1.773.493-1.773a1.931,1.931,0,0,0-.914.273" transform="translate(-273.163 -56.662)" fill="#b1d6db"/>
  <path id="Path_8863" data-name="Path 8863" d="M335.967,217.5a4.933,4.933,0,0,0-1.39,1.088c-.106.117-1.16,1.417-.4,1.417a1.524,1.524,0,0,0,.733-.219,4.916,4.916,0,0,0,1.39-1.088c.106-.117,1.16-1.417.4-1.417a1.543,1.543,0,0,0-.733.219" transform="translate(-274.819 -54.694)" fill="#b1d6db"/>
  <path id="Path_8864" data-name="Path 8864" d="M375.154,212.9a5.367,5.367,0,0,0-1.49,1.164c-.112.127-1.242,1.52-.424,1.52a1.641,1.641,0,0,0,.784-.233,5.374,5.374,0,0,0,1.489-1.164c.112-.127,1.242-1.52.424-1.52a1.635,1.635,0,0,0-.783.233" transform="translate(-279.651 -54.122)" fill="#b1d6db"/>
  <path id="Path_8865" data-name="Path 8865" d="M383.514,243.117a8.166,8.166,0,0,0-2.3,1.8,5.41,5.41,0,0,0-.941,1.321c-.131.318-.336,1.023.287,1.023a2.556,2.556,0,0,0,1.212-.364,8.2,8.2,0,0,0,2.3-1.8,5.449,5.449,0,0,0,.941-1.321c.13-.318.336-1.023-.287-1.023a2.546,2.546,0,0,0-1.212.363" transform="translate(-280.541 -57.846)" fill="#b1d6db"/>
  <path id="Path_8866" data-name="Path 8866" d="M410.526,233A6.969,6.969,0,0,0,408.6,234.5a4.516,4.516,0,0,0-.788,1.108c-.113.267-.28.856.24.856a2.142,2.142,0,0,0,1.013-.3,6.971,6.971,0,0,0,1.923-1.506,4.483,4.483,0,0,0,.788-1.108c.113-.267.28-.856-.24-.856a2.142,2.142,0,0,0-1.013.3" transform="translate(-283.952 -56.601)" fill="#b1d6db"/>
  <path id="Path_8867" data-name="Path 8867" d="M399.387,220.767a6.083,6.083,0,0,0-1.7,1.332c-.131.144-1.421,1.738-.486,1.738a1.914,1.914,0,0,0,.9-.271,6.113,6.113,0,0,0,1.7-1.331c.13-.144,1.42-1.739.485-1.739a1.925,1.925,0,0,0-.9.271" transform="translate(-282.611 -55.091)" fill="#b1d6db"/>
  <path id="Path_8868" data-name="Path 8868" d="M402.737,207.735a4.705,4.705,0,0,0-1.318,1.03c-.1.113-1.1,1.345-.373,1.345a1.469,1.469,0,0,0,.691-.205,4.709,4.709,0,0,0,1.318-1.03c.1-.113,1.1-1.345.373-1.345a1.452,1.452,0,0,0-.691.205" transform="translate(-283.097 -53.486)" fill="#b1d6db"/>
  <path id="Path_8869" data-name="Path 8869" d="M426.611,222.813a9.791,9.791,0,0,0-2.762,2.163,6.563,6.563,0,0,0-1.133,1.591c-.161.384-.4,1.232.342,1.232a3.1,3.1,0,0,0,1.458-.435,9.819,9.819,0,0,0,2.763-2.163,6.589,6.589,0,0,0,1.133-1.592c.16-.383.4-1.232-.343-1.232a3.1,3.1,0,0,0-1.458.435" transform="translate(-285.79 -55.324)" fill="#b1d6db"/>
  <path id="Path_8870" data-name="Path 8870" d="M429.1,243.108a7.157,7.157,0,0,0-1.989,1.557,4.753,4.753,0,0,0-.818,1.147c-.113.277-.287.89.25.89a2.251,2.251,0,0,0,1.051-.315,7.157,7.157,0,0,0,1.989-1.557,4.729,4.729,0,0,0,.818-1.147c.113-.277.287-.889-.25-.889a2.24,2.24,0,0,0-1.051.315" transform="translate(-286.24 -57.851)" fill="#b1d6db"/>
  <path id="Path_8871" data-name="Path 8871" d="M441.123,238.407a3.459,3.459,0,0,0-.959.753c-.075.079-.8.98-.273.98a1.072,1.072,0,0,0,.506-.151,3.479,3.479,0,0,0,.959-.754c.075-.079.8-.979.273-.979a1.071,1.071,0,0,0-.507.151" transform="translate(-287.913 -57.289)" fill="#b1d6db"/>
  <path id="Path_8872" data-name="Path 8872" d="M397.929,188.572h0Z" transform="translate(-282.743 -51.14)" fill="#0b2135"/>
  <path id="Path_8873" data-name="Path 8873" d="M392,188.209h-.006l0,0-.285.157c-.37.2-.74.4-1.109.6-.927.478-1.878.917-2.826,1.3a35.333,35.333,0,0,1-6.043,1.818,38.521,38.521,0,0,1-6.95.793c-.311.007-.626.011-.94.011-.823,0-1.634-.023-2.413-.068-1.218-.073-2.261-.177-3.189-.318a31.712,31.712,0,0,1-3.152-.616,25.4,25.4,0,0,1-2.97-.945,20.484,20.484,0,0,1-2.856-1.355c-.226-.13-.449-.264-.668-.4a4.237,4.237,0,0,0-.5.16,4.7,4.7,0,0,0-.676.343,5.8,5.8,0,0,0-.492.336c-.179.148-.34.281-.488.428s-.294.32-.431.487a5.436,5.436,0,0,0-.336.491,5.93,5.93,0,0,0-.288.566,3.644,3.644,0,0,0-.144.419,4.113,4.113,0,0,0-.106.483c-.018.173-.025.333-.028.5a.193.193,0,0,1-.062.145l.029.131a2.434,2.434,0,0,0-.419.3,3.178,3.178,0,0,0-.474.539,3.545,3.545,0,0,0-.545,1.263,4.129,4.129,0,0,0-.093,1.4,4.324,4.324,0,0,0,.124.713,3.046,3.046,0,0,0,.124.384c.065.216.144.414.223.61a25.2,25.2,0,0,0,8.548,4.974,35.106,35.106,0,0,0,10.353,1.965c.578.028,1.161.041,1.739.041a38.161,38.161,0,0,0,8.911-1.047,30.9,30.9,0,0,0,9.484-3.952,22.951,22.951,0,0,0,2.581-1.921l.124-.151.124-.169a2.469,2.469,0,0,0,.152-.241l.051-.081a4.734,4.734,0,0,0-.031-3.213,6.647,6.647,0,0,0-.736-1.55,4.778,4.778,0,0,0-.919-1.063,1.3,1.3,0,0,0,.068-.286l.017-.11-.02-.221a4.37,4.37,0,0,0-.138-.635c-.052-.168-.11-.333-.175-.5a4.9,4.9,0,0,0-.336-.662c-.11-.178-.223-.349-.35-.524a5.693,5.693,0,0,0-.521-.6c-.146-.144-.3-.278-.456-.411-.174-.131-.315-.23-.466-.322l-.007,0Z" transform="translate(-277.246 -51.095)" fill="#071826"/>
  <path id="Path_8874" data-name="Path 8874" d="M392.059,195a24.117,24.117,0,0,1-2.358,1.151l-.027.011.011,0-.03.012.016-.006a32.1,32.1,0,0,1-4.164,1.389,37.356,37.356,0,0,1-4.394.88l.027,0-.095.013a.237.237,0,0,1-.036,0h.017a44.088,44.088,0,0,1-11.479.029c.062.01.124.017.185.027a43.189,43.189,0,0,1-5.36-1.081c-.832-.223-1.66-.479-2.478-.754-.835-.284-1.657-.6-2.481-.917l-.113-.048a.727.727,0,0,0-.363,0,.683.683,0,0,0-.476.839.649.649,0,0,0,.311.407c.226.11.445.225.671.331s.455.209.684.308c.527.226,1.065.435,1.605.626a28.332,28.332,0,0,0,3.129.9,38.892,38.892,0,0,0,6.719.91,41.576,41.576,0,0,0,6.849-.2c1.133-.131,2.255-.315,3.374-.537,1.1-.219,2.191-.483,3.269-.8a35.912,35.912,0,0,0,3.676-1.318,36.314,36.314,0,0,0,3.557-1.746.247.247,0,0,0,.086-.331.24.24,0,0,0-.209-.118.252.252,0,0,0-.124.032m-11.033,3.445.019,0,.068-.01c-.028,0-.057.007-.087.012m8.645-2.281,0,0,0,0" transform="translate(-277.855 -51.932)" fill="#0b2135"/>
  <path id="Path_8875" data-name="Path 8875" d="M322.8,142.918a3.1,3.1,0,0,0-.945.147,3.945,3.945,0,0,0-1.232.705,5.71,5.71,0,0,0-.914.954,9.606,9.606,0,0,0-.9,1.38,13.541,13.541,0,0,0-1.127,2.807,16.6,16.6,0,0,0-.582,3.186,13.3,13.3,0,0,0,.117,3.317,8.229,8.229,0,0,0,.421,1.568,7.14,7.14,0,0,0,.3.661,4.528,4.528,0,0,0,.47.7,2.914,2.914,0,0,0,.485.472,2.249,2.249,0,0,0,.6.345,2.348,2.348,0,0,0,.376.12c.11.024.226.031.336.045a2.4,2.4,0,0,0,.853-.093,3.594,3.594,0,0,0,.756-.322,4.571,4.571,0,0,0,.65-.458,6.925,6.925,0,0,0,1.235-1.37,11.69,11.69,0,0,0,1.291-2.42,15.147,15.147,0,0,0,.8-2.666,17.592,17.592,0,0,0,.336-2.673c.011-.181.018-.364.018-.545s0-.386,0-.578-.018-.373-.025-.557c0-.016,0-.032,0-.046a6.136,6.136,0,0,1-.611-.115l-.239-.064c.027.108.04.221.058.328a12.193,12.193,0,0,1-.034,2.979v-.005l-.013.093c0-.02.007-.039.01-.062,0,.023-.006.042-.01.062a16.254,16.254,0,0,1-1.048,3.871l-.022.051a.068.068,0,0,0,.008-.017.08.08,0,0,1-.011.025A11.566,11.566,0,0,1,322.925,157l0-.01s0,.006-.007.01h0l-.006,0,0,0,0,.006-.006.008,0,0a.351.351,0,0,1-.039.049.369.369,0,0,0,.034-.045,7.067,7.067,0,0,1-1.03,1.068l.066-.052-.066.052a4.028,4.028,0,0,1-.78.458,3.161,3.161,0,0,1-.5.137h-.012a3.139,3.139,0,0,1-.48,0,3.087,3.087,0,0,1-.393-.11,3.387,3.387,0,0,1-.4-.226,3.566,3.566,0,0,1-.5-.506,5.114,5.114,0,0,1-.555-.989c.014.027.025.051.035.075a8.332,8.332,0,0,1-.511-2,13.755,13.755,0,0,1,.048-3.437c0,.014-.007.032-.01.045a16.063,16.063,0,0,1,1.068-3.926c-.01.027-.024.058-.034.085a11.8,11.8,0,0,1,1.427-2.516.875.875,0,0,1-.058.072,7.479,7.479,0,0,1,1.078-1.118l-.034.023.034-.023.018-.015c.109-.079.216-.157.329-.232a2.994,2.994,0,0,1,.431-.23,2.69,2.69,0,0,1,.534-.151,2.452,2.452,0,0,1,.278,0,.287.287,0,0,0,0-.575Zm2.488,7.811,0,.02a.18.18,0,0,1,0-.02" transform="translate(-272.732 -45.489)" fill="#b1d6db"/>
  <path id="Path_8876" data-name="Path 8876" d="M321.908,144.293l.01-.008Z" transform="translate(-273.334 -45.659)" fill="#b1d6db"/>
  <path id="Path_8877" data-name="Path 8877" d="M326.439,151.929v0" transform="translate(-273.895 -46.604)" fill="#b1d6db"/>
  <path id="Path_8878" data-name="Path 8878" d="M317.947,152.685c0-.014,0-.027,0-.045,0,.014,0,.031,0,.045" transform="translate(-272.844 -46.693)" fill="#b1d6db"/>
  <path id="Path_8879" data-name="Path 8879" d="M325.213,156.413v0l0-.009-.005.01" transform="translate(-273.743 -47.158)" fill="#b1d6db"/>
  <path id="Path_8880" data-name="Path 8880" d="M433.164,141.337a3.1,3.1,0,0,1,.945.147,3.944,3.944,0,0,1,1.232.705,5.713,5.713,0,0,1,.914.954,9.611,9.611,0,0,1,.9,1.38,13.544,13.544,0,0,1,1.127,2.807,16.612,16.612,0,0,1,.582,3.186,13.309,13.309,0,0,1-.117,3.317,8.234,8.234,0,0,1-.421,1.568,7.151,7.151,0,0,1-.3.661,4.528,4.528,0,0,1-.47.7,2.914,2.914,0,0,1-.485.472,2.249,2.249,0,0,1-.6.345,2.341,2.341,0,0,1-.376.12c-.109.024-.226.031-.336.045a2.4,2.4,0,0,1-.853-.093,3.592,3.592,0,0,1-.756-.322,4.571,4.571,0,0,1-.65-.458,6.922,6.922,0,0,1-1.235-1.37,11.694,11.694,0,0,1-1.291-2.42,15.157,15.157,0,0,1-.8-2.666,17.592,17.592,0,0,1-.336-2.673c-.01-.181-.018-.364-.018-.545s0-.386,0-.578.018-.373.025-.557l0-.046c.2-.03.409-.065.611-.115l.239-.064c-.026.108-.04.221-.058.328a12.148,12.148,0,0,0,.035,2.979v-.005c0,.031.009.062.014.093,0-.02-.007-.039-.011-.062,0,.023.007.042.011.062a16.25,16.25,0,0,0,1.047,3.871l.023.051-.009-.017a.084.084,0,0,0,.012.025,11.536,11.536,0,0,0,1.278,2.254l0-.01s0,.006.007.01h0l.006,0,0,0,0,.006.006.008,0,0a.289.289,0,0,0,.038.049.389.389,0,0,1-.034-.045,7.068,7.068,0,0,0,1.031,1.068c-.021-.018-.045-.034-.066-.052.021.018.045.034.066.052a4.026,4.026,0,0,0,.78.458,3.159,3.159,0,0,0,.5.137h.013a3.129,3.129,0,0,0,.479,0,3.09,3.09,0,0,0,.393-.11,3.394,3.394,0,0,0,.4-.226,3.572,3.572,0,0,0,.5-.506,5.114,5.114,0,0,0,.555-.989c-.014.027-.025.051-.035.075a8.332,8.332,0,0,0,.511-2,13.752,13.752,0,0,0-.048-3.437c0,.014.007.032.011.045a16.066,16.066,0,0,0-1.068-3.925c.01.027.024.058.034.085a11.8,11.8,0,0,0-1.427-2.516.856.856,0,0,0,.058.072,7.519,7.519,0,0,0-1.077-1.118.366.366,0,0,0,.033.023.366.366,0,0,1-.033-.023l-.018-.015c-.109-.079-.215-.157-.329-.232a3,3,0,0,0-.431-.23,2.694,2.694,0,0,0-.534-.151,2.449,2.449,0,0,0-.278,0,.287.287,0,0,1,0-.575Zm-2.488,7.811,0,.02a.188.188,0,0,0,0-.02" transform="translate(-286.691 -45.294)" fill="#b1d6db"/>
  <path id="Path_8881" data-name="Path 8881" d="M435.341,142.712l-.011-.008.011.008" transform="translate(-287.373 -45.463)" fill="#b1d6db"/>
  <path id="Path_8882" data-name="Path 8882" d="M430.811,150.348v0Z" transform="translate(-286.813 -46.408)" fill="#b1d6db"/>
  <path id="Path_8883" data-name="Path 8883" d="M439.3,151.1c0-.014,0-.027,0-.045,0,.014,0,.031,0,.045" transform="translate(-287.864 -46.497)" fill="#b1d6db"/>
  <path id="Path_8884" data-name="Path 8884" d="M432.037,154.832v0l0-.009,0,.01" transform="translate(-286.965 -46.963)" fill="#b1d6db"/>
  <path id="Path_8885" data-name="Path 8885" d="M376.151,36.837a79.8,79.8,0,0,0-8.839.506,78.146,78.146,0,0,0-16.869,3.783,54.284,54.284,0,0,0-7.192,3.019,46.972,46.972,0,0,0-6.495,4.111,56.88,56.88,0,0,0-6.142,5.337,61.027,61.027,0,0,0-5.511,6.323,55.94,55.94,0,0,0-8.1,14.672,39.356,39.356,0,0,0-2.5,14.049,30.914,30.914,0,0,0,.931,6.992,29.19,29.19,0,0,0,2.048,5.581.765.765,0,0,0,.051.289,11.829,11.829,0,0,0,.668,1.47,21.113,21.113,0,0,0,1.1,1.838,13.063,13.063,0,0,0,1.281,1.658A4.882,4.882,0,0,0,322,107.6a3.139,3.139,0,0,0,.817.24,2.253,2.253,0,0,0,.945-.013,1.628,1.628,0,0,0,.695-.365,1.782,1.782,0,0,0,.461-.719,3.263,3.263,0,0,0,.162-.787,6.853,6.853,0,0,0,0-.938c-.017-.379-.046-.758-.076-1.138-.026-.322-.051-.647-.067-.97-.008-.227-.011-.451-.012-.677l0-.223-.02-1.376-.025-1.468-.023-1.455c-.019-1.67-.025-3.65.075-5.667a48.987,48.987,0,0,1,.557-5.249c.2-1.256.456-2.6.794-4.121a53.349,53.349,0,0,1,1.533-5.493,37.8,37.8,0,0,1,2.3-5.444,23.01,23.01,0,0,1,3.2-4.656l.124-.133a13.676,13.676,0,0,0,1.8,3.267,20.61,20.61,0,0,0,2.79,3.161,18.008,18.008,0,0,0,1.665,1.377,15.658,15.658,0,0,0,1.667,1.058,10.064,10.064,0,0,0,3.351,1.219,5,5,0,0,0,.74.053c.145,0,.288-.005.433-.015a3.955,3.955,0,0,0,1.057-.229,3.542,3.542,0,0,0,1.674-1.3,6.137,6.137,0,0,0,.976-2.512,12.1,12.1,0,0,0,.21-2.377,40.556,40.556,0,0,0,5.433,6.506,58.209,58.209,0,0,0,8.938,7.193,63.766,63.766,0,0,0,10.618,5.641,56.541,56.541,0,0,0,5.68,2,48.626,48.626,0,0,0,5.683,1.335,39.921,39.921,0,0,0,5.714.531q.392.009.785.01a31.092,31.092,0,0,0,4.662-.349,27.491,27.491,0,0,0,5.256-1.339,23.555,23.555,0,0,0,3.966-1.88,14.327,14.327,0,0,0,.761,2.495,28.059,28.059,0,0,0,1.8,3.769,34.749,34.749,0,0,0,2.441,3.746,19.327,19.327,0,0,0,2.8,3.055,7.874,7.874,0,0,0,2.378,1.46,4.474,4.474,0,0,0,1.515.279,3.491,3.491,0,0,0,1-.142,4.265,4.265,0,0,0,.652-.251,4.311,4.311,0,0,0,.617-.384,4.889,4.889,0,0,0,1.074-1.108,7.714,7.714,0,0,0,.87-1.552,11.485,11.485,0,0,0,.675-2.142c.01-.051.02-.1.034-.146a.586.586,0,0,0-.139-.435c.124-.583.208-1.186.287-1.771.105-.776.205-1.533.3-2.29.154-1.234.27-2.507.354-3.891a72.406,72.406,0,0,0,.013-8.1A63.1,63.1,0,0,0,421.076,66.8,52.191,52.191,0,0,0,418,59.244a43.071,43.071,0,0,0-4.287-6.8,37.67,37.67,0,0,0-5.533-5.769,33.431,33.431,0,0,0-3.239-2.4,38.074,38.074,0,0,0-3.571-2.047,45.166,45.166,0,0,0-7.792-3.043,58.031,58.031,0,0,0-8.475-1.766,67.211,67.211,0,0,0-8.956-.585M329.377,56.67l.014-.023.059-.039q-.209.221-.416.444l.308-.339.027-.03,0,0,0,0,.02-.022Z" transform="translate(-272.418 -32.359)" fill="#e53047"/>
  <path id="Path_8886" data-name="Path 8886" d="M359.133,70.9a.221.221,0,0,0-.072.3c.657.863,1.334,1.711,2.036,2.537.722.849,1.476,1.663,2.246,2.464s1.568,1.578,2.4,2.321,1.684,1.455,2.55,2.153a56.12,56.12,0,0,0,5.449,3.891c.948.589,1.923,1.14,2.909,1.657s2,1,3.016,1.437a47.738,47.738,0,0,0,11.867,3.4,45.664,45.664,0,0,0,6.219.493,33.58,33.58,0,0,0,6.329-.5.947.947,0,0,0,.681-.942.955.955,0,0,0-.982-.917c-1.677.13-3.351.253-5.031.266-1.646.017-3.289-.053-4.927-.2l.022,0a50.749,50.749,0,0,1-6.565-1.075,54.6,54.6,0,0,1-6.51-1.972l.219.082c-1.092-.4-2.17-.839-3.231-1.314s-2.1-.975-3.139-1.506a47.757,47.757,0,0,1-5.857-3.522l.014.01-.039-.027-.057-.041a.376.376,0,0,0,.032.023,49.165,49.165,0,0,1-4.479-3.688,41.752,41.752,0,0,1-4.008-4.258c.014.014.024.031.038.045q-.421-.514-.825-1.044a.244.244,0,0,0-.19-.105.216.216,0,0,0-.111.032m9.6,9.037.025.018-.049-.036.025.018" transform="translate(-277.928 -36.571)" fill="#c3273c"/>
  <path id="Path_8887" data-name="Path 8887" d="M373.955,77.676a.23.23,0,0,0,.01.322,22.5,22.5,0,0,0,2.595,2.136,21,21,0,0,0,3.012,1.711,25.177,25.177,0,0,0,3.19,1.266c.551.172,1.106.325,1.664.469a18.078,18.078,0,0,0,1.81.373.545.545,0,0,0,.387-.061.53.53,0,0,0,.236-.329.52.52,0,0,0-.393-.62c-.469-.072-.938-.14-1.4-.223s-.941-.178-1.406-.287a26.109,26.109,0,0,1-2.9-.876l.093.031a21.894,21.894,0,0,1-5.029-2.662,15.849,15.849,0,0,1-1.543-1.261.228.228,0,0,0-.322.011m1.81,1.212.026.018-.026-.018" transform="translate(-279.769 -37.405)" fill="#c3273c"/>
  <path id="Path_8888" data-name="Path 8888" d="M338.284,66.961a.251.251,0,0,0-.168.308q.18.678.411,1.345a14.679,14.679,0,0,0,4.456,6.4,12.319,12.319,0,0,0,1.287.941,6.34,6.34,0,0,0,1.413.668.578.578,0,0,0,.294-.007.605.605,0,0,0,.349-.287.585.585,0,0,0-.246-.783c-.424-.2-.853-.4-1.273-.617a11.275,11.275,0,0,1-1.151-.694,13.8,13.8,0,0,1-2.563-2.45l.028.037-.042-.054-.026-.032.016.019c-.377-.479-.733-.97-1.064-1.484a13.122,13.122,0,0,1-.876-1.643c.011.02.021.045.032.065a10.989,10.989,0,0,1-.572-1.568.245.245,0,0,0-.237-.177.252.252,0,0,0-.068.01m2.8,4.81.014.018c-.008-.011-.016-.02-.025-.03l.01.012" transform="translate(-275.339 -36.087)" fill="#c3273c"/>
  <path id="Path_8889" data-name="Path 8889" d="M277.091,131.366a24.514,24.514,0,0,0-1.332,6.849,17.533,17.533,0,0,0,.774,5.7c1.136,3.72,3.491,6.9,5.787,9.978.565.753,1.127,1.51,1.691,2.262.6.783,1.185,1.571,1.756,2.375a25.918,25.918,0,0,1,2.7,4.853,23.888,23.888,0,0,1,1.653,5.837,15.246,15.246,0,0,1,.021,3.685,11.279,11.279,0,0,1-.728,2.65,10.823,10.823,0,0,1-.684,1.271.877.877,0,0,0,.989,1.287.92.92,0,0,0,.524-.4c2.539-3.731,2.156-8.619.694-12.682a24.317,24.317,0,0,0-3.039-5.785c-.619-.876-1.314-1.7-1.993-2.532q-1.037-1.274-2.094-2.526c-.734-.87-1.455-1.752-2.151-2.649a.213.213,0,0,0,.022.027c-.818-1.058-1.609-2.14-2.331-3.266a23.028,23.028,0,0,1-1.818-3.416l.01.02a16.7,16.7,0,0,1-1.156-4.191.2.2,0,0,1,0,.032,18.422,18.422,0,0,1,.041-4.72c0,.025-.007.045-.01.066a25.925,25.925,0,0,1,1.092-4.6.217.217,0,0,0-.154-.267.2.2,0,0,0-.059-.009.224.224,0,0,0-.208.159m13,37.616c.008.071.017.141.026.211-.01-.068-.018-.139-.026-.211m-.639,6.48,0,.007,0-.007m-13.065-34.756c0-.013,0-.025,0-.036,0,.012,0,.024,0,.036" transform="translate(-267.621 -44.04)" fill="#c3273c"/>
  <path id="Path_8890" data-name="Path 8890" d="M292.793,113.266c-1.492,1.948-3,3.885-4.374,5.918-.688,1.02-1.332,2.067-1.948,3.128s-1.184,2.108-1.694,3.207a23.66,23.66,0,0,0-2.064,6.764,19.648,19.648,0,0,0-.171,3.587,18.961,18.961,0,0,0,.541,3.7,17.469,17.469,0,0,0,1.129,3.148.8.8,0,0,0,.28.281.786.786,0,0,0,1.072-.281.748.748,0,0,0,.079-.6,28.024,28.024,0,0,1-.948-2.673,19.065,19.065,0,0,1-.575-2.668,19.683,19.683,0,0,1,.027-5.009c-.011.059-.018.12-.027.178a27.971,27.971,0,0,1,2.012-7.053c.431-1.009.913-1.992,1.441-2.955.544-.993,1.14-1.955,1.738-2.913,1.2-1.9,2.5-3.748,3.858-5.538a.216.216,0,0,0-.079-.3.209.209,0,0,0-.106-.031.249.249,0,0,0-.192.11" transform="translate(-268.459 -41.806)" fill="#c3273c"/>
  <path id="Path_8891" data-name="Path 8891" d="M456.825,96.569c1.519,1.91,3.019,3.837,4.46,5.809a73.1,73.1,0,0,1,4.314,6.543l0-.009.325.562-.052-.093a40.4,40.4,0,0,1,2.174,4.354,35.154,35.154,0,0,1,1.6,4.6,28.05,28.05,0,0,1,.9,6.818c-.014.832-.059,1.66-.154,2.484a19.82,19.82,0,0,1-.481,2.61c-.183.667-.4,1.323-.631,1.97a22.032,22.032,0,0,1-.9,2.135,1.168,1.168,0,0,0,0,.91,1.214,1.214,0,0,0,1.578.671c.093-.054.188-.11.281-.161a1.214,1.214,0,0,0,.386-.5c.02-.041.045-.082.068-.123-.01.016-.017.032-.027.046.258-.453.5-.914.722-1.389a14.42,14.42,0,0,0,.623-1.615,18.359,18.359,0,0,0,.756-3.338,20.118,20.118,0,0,0-.27-6.5,29.834,29.834,0,0,0-2.088-6.263,55.5,55.5,0,0,0-3.156-5.936A122.084,122.084,0,0,0,457.17,96.3a.2.2,0,0,0-.162-.081.217.217,0,0,0-.183.349m12.781,21.615.023.093-.023-.093m.945,6.678c0,.1,0,.189,0,.284,0-.095,0-.188,0-.284m-.662,5.475c-.018.065-.033.13-.051.194.018-.064.033-.129.051-.194M465.645,109l-.028-.049Zm-.028-.049-.018-.032.018.032" transform="translate(-290.027 -39.709)" fill="#c3273c"/>
  <path id="Path_8892" data-name="Path 8892" d="M326.948,74.81a.737.737,0,0,0-.4.3,20.763,20.763,0,0,0-1.763,3.076,30.09,30.09,0,0,0-1.365,3.437,38.165,38.165,0,0,0-1.527,7.02,112.959,112.959,0,0,0-.585,14.509.35.35,0,0,0,.35.345.354.354,0,0,0,.349-.345,93.3,93.3,0,0,1,.669-11.912c0,.01,0,.018,0,.028a45.276,45.276,0,0,1,2.941-11.341c.3-.7.618-1.381.958-2.059.353-.705.74-1.4,1.122-2.088a.673.673,0,0,0-.239-.907.682.682,0,0,0-.339-.09.622.622,0,0,0-.171.022" transform="translate(-273.26 -37.057)" fill="#c3273c"/>
  <path id="Path_8893" data-name="Path 8893" d="M377.4,37.123c-1.284.007-2.566.065-3.847.154q-1.864.133-3.718.39a51.674,51.674,0,0,0-7.335,1.571c-1.252.366-2.495.784-3.717,1.25a26.313,26.313,0,0,0-3.48,1.591c-.093.052-.179.106-.267.161a.9.9,0,0,0-.435.476.861.861,0,0,0,.031.664.878.878,0,0,0,.479.435c.072.013.144.031.216.048a.861.861,0,0,0,.449-.082c.927-.3,1.837-.664,2.755-1,.838-.306,1.675-.6,2.521-.876a60.084,60.084,0,0,1,7.83-1.944,62.272,62.272,0,0,1,8.009-.862l-.266.011c1.547-.066,3.09-.079,4.637-.062,1.6.021,3.194.124,4.785.271.747.068,1.49.137,2.235.219.794.088,1.585.205,2.375.322,1.582.233,3.153.555,4.713.9l-.133-.031c1.519.346,3.026.743,4.528,1.164q2.32.647,4.586,1.472c1.506.548,2.988,1.15,4.46,1.78s2.913,1.291,4.333,2.013a.218.218,0,0,0,.281-.13.225.225,0,0,0-.131-.281c-2.225-1.136-4.473-2.218-6.773-3.182-1.158-.486-2.325-.942-3.5-1.386s-2.351-.874-3.539-1.274a80.264,80.264,0,0,0-14.636-3.333c-1.239-.144-2.482-.253-3.724-.343-1.171-.081-2.346-.11-3.524-.11h-.2m-16.128,4.713-.091.029.091-.029" transform="translate(-277.375 -32.395)" fill="#c3273c"/>
  <path id="Path_8894" data-name="Path 8894" d="M373.488,44.637q-1.489.03-2.968.163a31.521,31.521,0,0,0-3.142.429.543.543,0,1,0,.192,1.068c.6-.1,1.2-.21,1.8-.3.661-.11,1.324-.2,1.985-.285q1.993-.256,3.995-.349c-.031,0-.061,0-.1,0a32.847,32.847,0,0,1,4.346.055.232.232,0,1,0,.045-.463c-1-.1-1.992-.2-2.988-.265-.736-.044-1.477-.065-2.216-.065-.319,0-.639,0-.957.011" transform="translate(-278.907 -33.324)" fill="#c3273c"/>
  <path id="Path_8895" data-name="Path 8895" d="M375.1,111.367a.253.253,0,0,0-.181.086.209.209,0,0,0-.057.152,18.558,18.558,0,0,1-.086,3.767,17.035,17.035,0,0,1-1.143,4.164,23.446,23.446,0,0,1-2.3,4.075l-.243.349c-.287.418-.576.835-.846,1.266a8.156,8.156,0,0,0-.836,1.679,3.5,3.5,0,0,0-.174,1.582,3.01,3.01,0,0,0,.213.813,3.787,3.787,0,0,0,.545.906,5.7,5.7,0,0,0,.738.73,6.66,6.66,0,0,0,1.106.731,8.136,8.136,0,0,0,2.279.775,1.251,1.251,0,0,0,.163.013.551.551,0,0,0,.288-.077.593.593,0,0,0,.271-.35.607.607,0,0,0-.073-.483.537.537,0,0,0-.338-.247,10.183,10.183,0,0,1-1.71-.471c-.146-.065-.283-.133-.423-.211a5.047,5.047,0,0,1-.53-.356,5.882,5.882,0,0,1-.905-.861,3.473,3.473,0,0,1-.351-.6,3,3,0,0,1-.126-.479,2.925,2.925,0,0,1,.007-.638,5.167,5.167,0,0,1,.352-1.158l-.076.088a24.426,24.426,0,0,1,1.263-2.233l.1-.161c.127-.207.255-.417.379-.626a24.163,24.163,0,0,0,1.8-3.749,18.708,18.708,0,0,0,1.013-3.932,19.6,19.6,0,0,0,.119-4.308.248.248,0,0,0-.237-.237" transform="translate(-279.188 -41.584)" fill="#dc8c66"/>
  <path id="Path_8896" data-name="Path 8896" d="M384.125,141.137a.664.664,0,0,0-.655.487,13.013,13.013,0,0,1-.694,2.469,9.769,9.769,0,0,1-1.132,1.965,8.494,8.494,0,0,1-1.426,1.429,8.2,8.2,0,0,1-1.463.861,8.033,8.033,0,0,1-1.8.5,7.6,7.6,0,0,1-.986.062,8.366,8.366,0,0,1-1.05-.065,8.013,8.013,0,0,1-1.9-.516,7.747,7.747,0,0,1-1.651-.988,8.427,8.427,0,0,1-1.341-1.374,9.861,9.861,0,0,1-1.136-1.958,11.117,11.117,0,0,1-.454-1.349.356.356,0,0,0-.337-.257.456.456,0,0,0-.3.193.325.325,0,0,0-.034.25,10.84,10.84,0,0,0,2.185,4.323,8.954,8.954,0,0,0,1.614,1.452,8.621,8.621,0,0,0,1.844.987,7.948,7.948,0,0,0,2.961.559,8.475,8.475,0,0,0,4.893-1.542,8.24,8.24,0,0,0,2.443-2.776,9.458,9.458,0,0,0,1.079-4.056.663.663,0,0,0-.488-.64.56.56,0,0,0-.164-.02" transform="translate(-279.008 -45.269)" fill="#0b2135"/>
  <path id="Path_8897" data-name="Path 8897" d="M349.962,129c1.5,0,2.722-2.542,2.722-5.675s-1.22-5.674-2.722-5.674-2.722,2.542-2.722,5.674S348.46,129,349.962,129" transform="translate(-276.469 -42.362)" fill="#0b2135"/>
  <path id="Path_8898" data-name="Path 8898" d="M401.925,127.81c1.5,0,2.721-2.543,2.721-5.675s-1.22-5.675-2.721-5.675S399.2,119,399.2,122.134s1.22,5.675,2.722,5.675" transform="translate(-282.901 -42.214)" fill="#0b2135"/>
  <path id="Path_8899" data-name="Path 8899" d="M350.639,93.966a18.379,18.379,0,0,0-5.681,1.044,17.442,17.442,0,0,0-5.545,2.939c-1.37,1.153-1.957,2.276-1.655,3.161.326.966,1.695,1.519,3.756,1.519a18.374,18.374,0,0,0,5.674-1.045c3.433-1.162,6.192-3.007,7.027-4.7a1.813,1.813,0,0,0,.169-1.405c-.324-.961-1.688-1.512-3.746-1.512" transform="translate(-275.286 -39.43)" fill="#e53047"/>
</svg>
