<svg xmlns="http://www.w3.org/2000/svg" xmlns:xlink="http://www.w3.org/1999/xlink" width="130" height="130" viewBox="0 0 130 130">
  <defs>
    <clipPath id="clip-path">
      <ellipse id="Ellipse_476" data-name="Ellipse 476" cx="65" cy="65" rx="65" ry="65" fill="none"/>
    </clipPath>
  </defs>
  <g id="Group_8366" data-name="Group 8366" transform="translate(-545.284 -314.645)">
    <ellipse id="Ellipse_473" data-name="Ellipse 473" cx="65" cy="65" rx="65" ry="65" transform="translate(545.284 314.645)" fill="#9ec6a3"/>
    <path id="Path_8757" data-name="Path 8757" d="M550.909,382.494a62.221,62.221,0,0,1,103.319-46.719,62.222,62.222,0,1,0-87.815,87.814A61.985,61.985,0,0,1,550.909,382.494Z" opacity="0.07" style="mix-blend-mode: overlay;isolation: isolate"/>
    <ellipse id="Ellipse_474" data-name="Ellipse 474" cx="65" cy="65" rx="65" ry="65" transform="translate(545.284 314.645)" fill="none"/>
    <ellipse id="Ellipse_475" data-name="Ellipse 475" cx="65" cy="65" rx="65" ry="65" transform="translate(545.284 314.645)" fill="none"/>
    <g id="Group_8365" data-name="Group 8365" transform="translate(545.284 314.645)">
      <g id="Group_8364" data-name="Group 8364" clip-path="url(#clip-path)">
        <g id="Group_8363" data-name="Group 8363" transform="translate(22.401 10.709)">
          <g id="Group_8362" data-name="Group 8362">
            <g id="Group_8360" data-name="Group 8360" transform="translate(12.919 0.007)">
              <path id="Path_8758" data-name="Path 8758" d="M602.146,377.172c.972,4.84-.626,9.508-3.57,10.427s-6.118-2.261-7.091-7.1.626-9.508,3.57-10.427S601.174,372.332,602.146,377.172Z" transform="translate(-591.201 -338.115)" fill="#fff"/>
              <path id="Path_8759" data-name="Path 8759" d="M653.471,377.172c-.972,4.84.625,9.508,3.569,10.427s6.118-2.261,7.091-7.1-.626-9.508-3.57-10.427S654.443,372.332,653.471,377.172Z" transform="translate(-605.505 -338.115)" fill="#f4f1ef"/>
              <path id="Path_8760" data-name="Path 8760" d="M668.059,421.207a12.755,12.755,0,0,0-5.265-2.854L650.54,415.08h0a14.5,14.5,0,0,1-1.4-.461c-.112-.042-.222-.088-.332-.132-.383-.156-.758-.325-1.123-.51-.048-.024-.1-.046-.142-.071L648,413.2l-7.092-6.262a14.742,14.742,0,0,1-1.325-5.315l-.224-3.942c5.194-4.335,9.95-11.548,12.892-19.486,2.722.241,5.47-2.792,6.362-7.235.909-4.526-.43-8.9-3.015-10.2h0s2.317-11.552-3.881-20.058c-5.641-7.742-14.515-13.236-22.436-11.933V450.239h39.585l3.207-17.168a12.784,12.784,0,0,0-4.016-11.865Z" transform="translate(-599.989 -328.575)" fill="#51504f" opacity="0.5" style="mix-blend-mode: overlay;isolation: isolate"/>
            </g>
            <path id="Path_8761" data-name="Path 8761" d="M637.876,430.659A14.8,14.8,0,0,1,626.92,417.2l-1.2-21.12H606.087l-1.254,22.006a14.8,14.8,0,0,1-11.131,13.5l-9.645,2.449a12.8,12.8,0,0,0-9.433,14.758l3.18,17.023h78.4l3.207-17.168a12.8,12.8,0,0,0-9.281-14.718Z" transform="translate(-574.406 -344.147)" fill="#f4f1ef"/>
            <path id="Path_8762" data-name="Path 8762" d="M647.733,363.965c0,17.985-13.871,39.488-25.641,39.488s-25.641-21.5-25.641-39.488,11.48-28.718,25.641-28.718S647.733,345.98,647.733,363.965Z" transform="translate(-579.493 -330.108)" fill="#fff"/>
            <path id="Path_8763" data-name="Path 8763" d="M613.553,332.749c-4.717.585-11.518.956-15.967,10.321-4.67,9.831-2.581,17.841-2.581,17.841,5.227-.385,5.978,8.383,5.978,8.383l1.442-2.538c.581-4.478.936-12.981,4.226-14.9,3.873-.385,20.755,6.154,25.434-4.423,11.462.065,8.708,17.056,8.6,19.1l1.538,2.762s1.5-8.557,5.355-8.538c0,0,2.316-11.552-3.881-20.058C636.107,330.274,622.651,323.914,613.553,332.749Z" transform="translate(-579.052 -328.566)" fill="#333332"/>
            <path id="Path_8764" data-name="Path 8764" d="M650.13,441.612l-12.255-3.273a14.716,14.716,0,0,1-3.006-1.169l.468-.712-7.092-6.262-11.619,11.618-12.452-12.452-6.721,7.032.675.933a14.747,14.747,0,0,1-4.426,1.94l-9.645,2.449a12.8,12.8,0,0,0-9.433,14.758l3.18,17.023h78.4l3.207-17.168A12.8,12.8,0,0,0,650.13,441.612Z" transform="translate(-574.406 -351.827)" fill="#fff"/>
            <path id="Path_8765" data-name="Path 8765" d="M606.868,443.413l9.939,14.452,7.311-12.808-7.311,15.7Z" transform="translate(-581.897 -355.07)" opacity="0.1"/>
            <path id="Path_8766" data-name="Path 8766" d="M646.258,443.413,636.6,457.2l-7.311-12.144,7.311,15.7Z" transform="translate(-587.07 -355.07)" opacity="0.1"/>
            <g id="Group_8361" data-name="Group 8361" transform="translate(0 85.343)">
              <path id="Path_8767" data-name="Path 8767" d="M598.129,439.717a14.765,14.765,0,0,1-4.426,1.94l-9.645,2.449a12.8,12.8,0,0,0-9.433,14.758l3.18,17.023H614Z" transform="translate(-574.406 -439.559)" fill="#51504f"/>
              <path id="Path_8768" data-name="Path 8768" d="M663.636,443.954l-12.255-3.273a14.717,14.717,0,0,1-3.006-1.169L632.93,475.84h36.78l3.207-17.168A12.8,12.8,0,0,0,663.636,443.954Z" transform="translate(-587.911 -439.512)" fill="#51504f"/>
            </g>
            <path id="Path_8769" data-name="Path 8769" d="M592.348,450.265l9.578,20.569,5.244-1.026-3.205,6.134.9,2.38h2.051l-.769-2.38,3.269-7.8L602.7,469.3Z" transform="translate(-578.546 -356.651)" opacity="0.24" style="mix-blend-mode: overlay;isolation: isolate"/>
            <path id="Path_8770" data-name="Path 8770" d="M660.414,450.265l-9.578,20.569-5.244-1.026,3.205,6.134-.9,2.38h-2.051l.769-2.38-3.269-7.8,6.719,1.154Z" transform="translate(-590.315 -356.651)" opacity="0.24" style="mix-blend-mode: overlay;isolation: isolate"/>
            <path id="Path_8771" data-name="Path 8771" d="M627.807,445.55l-4.925,8.64,4.925,6.1,5.278-5.973Z" transform="translate(-585.592 -355.563)" fill="#3c3f44"/>
            <path id="Path_8772" data-name="Path 8772" d="M627.807,455.55l-4.925,11.717,2.305,12.274h5.424l2.474-12.147Z" transform="translate(-585.592 -357.871)" fill="#3c3f44"/>
          </g>
        </g>
      </g>
    </g>
  </g>
</svg>
