<svg xmlns="http://www.w3.org/2000/svg" xmlns:xlink="http://www.w3.org/1999/xlink" width="100" height="99.999" viewBox="0 0 100 99.999">
  <defs>
    <clipPath id="clip-path">
      <ellipse id="Ellipse_491" data-name="Ellipse 491" cx="45.527" cy="45.528" rx="45.527" ry="45.528" fill="none"/>
    </clipPath>
  </defs>
  <g id="Group_8391" data-name="Group 8391" transform="translate(-540.812 -535.778)">
    <ellipse id="Ellipse_488" data-name="Ellipse 488" cx="45.527" cy="45.528" rx="45.527" ry="45.528" transform="translate(545.284 540.25)" fill="#c6acb4"/>
    <path id="Path_8817" data-name="Path 8817" d="M550.447,602.529a57.113,57.113,0,0,1,94.837-42.884,57.113,57.113,0,1,0-80.6,80.6A56.894,56.894,0,0,1,550.447,602.529Z" transform="translate(-4.472 -4.472)" opacity="0.07" style="mix-blend-mode: overlay;isolation: isolate"/>
    <ellipse id="Ellipse_489" data-name="Ellipse 489" cx="45.527" cy="45.528" rx="45.527" ry="45.528" transform="translate(545.284 540.25)" fill="none"/>
    <ellipse id="Ellipse_490" data-name="Ellipse 490" cx="45.527" cy="45.528" rx="45.527" ry="45.528" transform="translate(545.284 540.25)" fill="none"/>
    <g id="Group_8390" data-name="Group 8390" transform="translate(545.284 540.25)">
      <g id="Group_8389" data-name="Group 8389" clip-path="url(#clip-path)">
        <g id="Group_8388" data-name="Group 8388" transform="translate(15.69 7.501)">
          <g id="Group_8387" data-name="Group 8387">
            <path id="Path_8818" data-name="Path 8818" d="M648.191,563.909s12.533,9.791,8.247,29.529c-2.267,10.439-14.08,13.651-14.08,13.651s6.69-8.233,4.713-23.982Z" transform="translate(-605.746 -558.663)" fill="#ffb56a"/>
            <path id="Path_8819" data-name="Path 8819" d="M655.979,606.932a20.047,20.047,0,0,1-8.554.979c.215,12.51-5.067,19.021-5.067,19.021s6.877-3.16,11.686-12.7A17.933,17.933,0,0,0,655.979,606.932Z" transform="translate(-605.746 -578.506)" opacity="0.32" style="mix-blend-mode: overlay;isolation: isolate"/>
            <g id="Group_8386" data-name="Group 8386" transform="translate(9.049 0.004)">
              <path id="Path_8820" data-name="Path 8820" d="M598.867,600.6c.681,3.39-.439,6.66-2.5,7.3s-4.286-1.583-4.966-4.973.438-6.66,2.5-7.3S598.186,597.213,598.867,600.6Z" transform="translate(-591.201 -573.246)" fill="#f2eae2"/>
              <path id="Path_8821" data-name="Path 8821" d="M653.385,600.6c-.681,3.39.438,6.66,2.5,7.3s4.286-1.583,4.967-4.973-.439-6.66-2.5-7.3S654.066,597.213,653.385,600.6Z" transform="translate(-619.789 -573.246)" fill="#f4f1ef"/>
              <path id="Path_8822" data-name="Path 8822" d="M658.709,622.4a8.971,8.971,0,0,0-4.04-4.543,13.343,13.343,0,0,0,2.251-1.981s-7.943-2.964-8.192-6.253a12.126,12.126,0,0,1-7.33,3.976l-.051-.031h0q-.255-.157-.5-.329l-.047-.033a10.4,10.4,0,0,1-1.75-1.564l-.108-.123c-.108-.125-.214-.253-.316-.383-.038-.048-.073-.1-.11-.146-.178-.235-.345-.479-.5-.729-.039-.062-.081-.122-.118-.185-.066-.11-.127-.222-.188-.335s-.111-.2-.163-.305-.1-.211-.155-.317c-.058-.125-.113-.251-.165-.378-.038-.092-.079-.183-.114-.276-.083-.215-.159-.433-.228-.655-.02-.064-.036-.13-.054-.2-.05-.174-.1-.349-.137-.525-.019-.084-.037-.168-.054-.253-.035-.17-.065-.342-.092-.514-.012-.078-.025-.154-.035-.232-.032-.248-.059-.5-.073-.75l-.156-2.746c.32-.089,11.83-3.353,14.065-13.647,4.286-19.738-8.247-29.529-8.247-29.529h0c-3.78-3.63-8.577-5.85-12.951-5.1V639.4h27.8l2.246-12.024A8.931,8.931,0,0,0,658.709,622.4Zm-22.429-19.821,0,0h0l0,0Z" transform="translate(-608.703 -554.18)" fill="#51504f" opacity="0.5" style="mix-blend-mode: overlay;isolation: isolate"/>
            </g>
            <path id="Path_8823" data-name="Path 8823" d="M618.862,645.905a10.364,10.364,0,0,1-7.673-9.426l-.839-14.793H596.6l-.878,15.414a10.364,10.364,0,0,1-7.8,9.456l-6.755,1.716a8.966,8.966,0,0,0-6.607,10.337l2.227,11.923H631.7l2.246-12.024a8.967,8.967,0,0,0-6.5-10.31Z" transform="translate(-574.406 -585.31)" fill="#f4f1ef"/>
            <path id="Path_8824" data-name="Path 8824" d="M632.37,580.967c0,12.6-9.715,27.658-17.96,27.658s-17.959-15.061-17.959-27.658,8.041-20.115,17.959-20.115S632.37,568.37,632.37,580.967Z" transform="translate(-584.573 -557.253)" fill="#fff"/>
            <path id="Path_8825" data-name="Path 8825" d="M627.445,669.1,619.6,667c-.913,7.8-6.585,20.038-15.623,20.038-8.918,0-14.56-11.917-15.584-19.726-.157.048-.312.1-.472.141l-6.755,1.715a8.966,8.966,0,0,0-6.607,10.337l2.227,11.923H631.7l2.246-12.024A8.967,8.967,0,0,0,627.445,669.1Z" transform="translate(-574.406 -606.212)" fill="#fff"/>
            <path id="Path_8826" data-name="Path 8826" d="M626.008,562.669c-5.319-7.3-14.745-11.756-21.117-5.567-2.094.26-4.775.462-7.251,2.243h0s-11.724,7.257-9.168,27.181c1.257,9.8,13.335,14.187,13.335,14.187s-5.176-6.595-5.074-18.907a7,7,0,0,0,1.213-3.378c2.658-.265,13.464-2.816,16.983-9.887,2,1.629,5.366,4.833,6.476,8.675a19.988,19.988,0,0,0-2.732-8.2c4.741,2.7,5.283,10.562,5.224,11.749l1.078,1.935s1.051-5.993,3.751-5.979C628.726,576.719,630.348,568.627,626.008,562.669Z" transform="translate(-580.725 -554.172)" fill="#ffb56a"/>
            <path id="Path_8827" data-name="Path 8827" d="M607.647,592.811c7.88-7.034,8.859-11.883,8.859-11.883s-17.417,16.445-24.935,15.815C591.571,596.742,601.6,598.205,607.647,592.811Z" transform="translate(-582.322 -566.512)" opacity="0.32" style="mix-blend-mode: overlay;isolation: isolate"/>
            <path id="Path_8828" data-name="Path 8828" d="M615.454,580.026s-9.563,18.424-26.67,15.8c0,0,9.715-4.8,9.168-10.188Z" transform="translate(-581.037 -566.096)" fill="#ffb56a"/>
            <path id="Path_8829" data-name="Path 8829" d="M610.53,649.576l-.011.186a10.361,10.361,0,0,1-4.022,7.617h0c11.7,4.351,24.406,0,24.406,0l-.005-.01a10.359,10.359,0,0,1-4.91-8.229C622.181,651.2,613.775,650.1,610.53,649.576Z" transform="translate(-589.206 -597.973)" fill="#42789b"/>
            <path id="Path_8830" data-name="Path 8830" d="M632.031,661.108s-7.228,16.972,3.727,24.38c0,0,1.819-8.28,5.04-8.989,0,0-6.824-3.777-5.553-14.179Z" transform="translate(-599.904 -603.492)" fill="#42789b"/>
            <path id="Path_8831" data-name="Path 8831" d="M634.919,663.61s15.788,9.54,24.662-.266c0,0-7.943-2.964-8.192-6.253,0,0-4.7,6.226-14.818,3.506Z" transform="translate(-602.315 -601.64)" fill="#42789b"/>
          </g>
        </g>
      </g>
    </g>
  </g>
</svg>
