<svg xmlns="http://www.w3.org/2000/svg" xmlns:xlink="http://www.w3.org/1999/xlink" width="130" height="130" viewBox="0 0 130 130">
  <defs>
    <clipPath id="clip-path">
      <ellipse id="Ellipse_480" data-name="Ellipse 480" cx="65" cy="65" rx="65" ry="65" fill="none"/>
    </clipPath>
  </defs>
  <g id="Group_8372" data-name="Group 8372" transform="translate(-308.917 -540.25)">
    <ellipse id="Ellipse_477" data-name="Ellipse 477" cx="65" cy="65" rx="65" ry="65" transform="translate(308.917 540.25)" fill="#7db3ef"/>
    <path id="Path_8773" data-name="Path 8773" d="M314.542,608.1a62.221,62.221,0,0,1,103.319-46.72,62.221,62.221,0,1,0-87.814,87.814A61.98,61.98,0,0,1,314.542,608.1Z" opacity="0.07" style="mix-blend-mode: overlay;isolation: isolate"/>
    <ellipse id="Ellipse_478" data-name="Ellipse 478" cx="65" cy="65" rx="65" ry="65" transform="translate(308.917 540.25)" fill="none"/>
    <ellipse id="Ellipse_479" data-name="Ellipse 479" cx="65" cy="65" rx="65" ry="65" transform="translate(308.917 540.25)" fill="none"/>
    <g id="Group_8371" data-name="Group 8371" transform="translate(308.917 540.25)">
      <g id="Group_8370" data-name="Group 8370" clip-path="url(#clip-path)">
        <g id="Group_8369" data-name="Group 8369" transform="translate(22.415 9.36)">
          <g id="Group_8368" data-name="Group 8368">
            <g id="Group_8367" data-name="Group 8367" transform="translate(13.116 0.091)">
              <path id="Path_8774" data-name="Path 8774" d="M366.052,607.758c.972,3.97-.626,7.8-3.57,8.554s-6.118-1.855-7.091-5.825.626-7.8,3.57-8.554S365.08,603.788,366.052,607.758Z" transform="translate(-355.107 -563.905)" fill="#fff"/>
              <path id="Path_8775" data-name="Path 8775" d="M417.377,607.758c-.972,3.97.626,7.8,3.57,8.554s6.118-1.855,7.09-5.825-.625-7.8-3.569-8.554S418.349,603.788,417.377,607.758Z" transform="translate(-369.411 -563.905)" fill="#f4f1ef"/>
              <path id="Path_8776" data-name="Path 8776" d="M426.435,645.164l-12.092-3.229c-.19-.051-.374-.116-.561-.174q-.561-.174-1.1-.389c-.109-.043-.219-.085-.326-.131-.191-.082-.379-.168-.565-.257-.116-.055-.232-.113-.346-.172-.182-.092-.363-.185-.539-.285-.1-.056-.2-.118-.3-.176-.147-.088-.3-.173-.439-.265-.052-.033-.1-.07-.154-.1-.105-.069-.208-.141-.312-.213s-.222-.155-.331-.235c-.065-.048-.127-.1-.191-.146-.092-.07-.183-.138-.272-.21-.106-.085-.21-.174-.314-.262-.148-.126-.3-.252-.442-.383a14.789,14.789,0,0,1-4.768-10.057l-.069-1.228a20.475,20.475,0,0,0,12.732-18.954v-3.229l.011-.028c2.792.352,5.665-2.177,6.582-5.919.972-3.966-.622-7.791-3.559-8.551,0-.055,0-.11,0-.165a40.224,40.224,0,0,0,1.258-10.4c0-5.321-3.032-11.218-3.032-11.218s.853-5.064-3.378-7.115a15.882,15.882,0,0,0-16.506-7.243,7.576,7.576,0,0,0-3.709-1.889V677.094h38.953l3.175-17A12.984,12.984,0,0,0,426.435,645.164Z" transform="translate(-364.018 -552.536)" fill="#51504f" opacity="0.5" style="mix-blend-mode: overlay;isolation: isolate"/>
            </g>
            <path id="Path_8777" data-name="Path 8777" d="M401.5,658.381a14.8,14.8,0,0,1-10.955-13.458l-1.2-21.12H369.71l-1.253,22.007a14.8,14.8,0,0,1-11.132,13.5l-9.478,2.407a12.984,12.984,0,0,0-9.568,14.969l3.148,16.855h78.4l3.175-17a12.984,12.984,0,0,0-9.413-14.928Z" transform="translate(-338.056 -568.891)" fill="#f4f1ef"/>
            <path id="Path_8778" data-name="Path 8778" d="M411.348,591.688c0,17.985-13.871,39.488-25.641,39.488s-25.641-21.5-25.641-39.488,11.479-28.718,25.641-28.718S411.348,573.7,411.348,591.688Z" transform="translate(-343.136 -554.853)" fill="#fff"/>
            <path id="Rectangle_3435" data-name="Rectangle 3435" d="M9.348,0h1.3A9.348,9.348,0,0,1,20,9.348V21.026a0,0,0,0,1,0,0H0a0,0,0,0,1,0,0V9.348A9.348,9.348,0,0,1,9.348,0Z" transform="translate(32.818 50.634)" fill="none" stroke="#544e49" stroke-linejoin="round" stroke-width="6"/>
            <path id="Path_8779" data-name="Path 8779" d="M409.325,568.756s.853-5.064-3.378-7.115a15.882,15.882,0,0,0-16.506-7.243s-3.709-3.75-8.077-.929c0,0-7.105-.345-10.673,5.256-1.53-.462-5.7,1.967-6.951,6.186-.242.264-4.408,1.612-4.579,14.641q-.05,1-.052,2.063c0,.031,0,.058,0,.088l0-.006a54.314,54.314,0,0,0,.74,8.839s1.344-.1,2.7,1.776v15.955a20.473,20.473,0,0,0,20.472,20.473h4.568a20.473,20.473,0,0,0,20.472-20.473V592.616a2.986,2.986,0,0,1,2.99-2.08,39.178,39.178,0,0,0,1.3-10.562C412.358,574.654,409.325,568.756,409.325,568.756Zm-24.018,45.321c-9.028,0-16.3-2.727-18.558-6.748-2.852-5.071-2.616-17.436-1.587-23.162a19.771,19.771,0,0,1,5.378-10.107,5.415,5.415,0,0,1,5.277-2.375c.2.113,9.668,9.058,25.2,3.336a11.363,11.363,0,0,1,4.537,7.365c.967,6.24,1.177,20.128-1.848,25.671C401.574,611.974,394.846,614.077,385.307,614.077Z" transform="translate(-342.914 -552.418)" fill="#544e49"/>
            <path id="Path_8780" data-name="Path 8780" d="M413.59,670.791,401.5,667.561a14.761,14.761,0,0,1-6.188-3.4,20.694,20.694,0,0,1-30.229-.577,14.776,14.776,0,0,1-7.756,4.907l-9.478,2.407a12.984,12.984,0,0,0-9.568,14.969l3.148,16.855h78.4l3.175-17A12.984,12.984,0,0,0,413.59,670.791Z" transform="translate(-338.056 -578.071)" fill="#db674c"/>
            <path id="Path_8781" data-name="Path 8781" d="M387,677.295a27.022,27.022,0,0,0,20.749-9.818,14.752,14.752,0,0,1-5.907-3.317,20.694,20.694,0,0,1-30.229-.577,14.805,14.805,0,0,1-5.258,4.02A27.012,27.012,0,0,0,387,677.295Z" transform="translate(-344.587 -578.071)" fill="#ce5e4b"/>
          </g>
        </g>
      </g>
    </g>
  </g>
</svg>
