<svg xmlns="http://www.w3.org/2000/svg" xmlns:xlink="http://www.w3.org/1999/xlink" width="130" height="130" viewBox="0 0 130 130">
  <defs>
    <clipPath id="clip-path">
      <ellipse id="Ellipse_463" data-name="Ellipse 463" cx="65" cy="65" rx="65" ry="65" fill="none"/>
    </clipPath>
  </defs>
  <g id="Group_8353" data-name="Group 8353" transform="translate(-74 -86.968)">
    <ellipse id="Ellipse_462" data-name="Ellipse 462" cx="65" cy="65" rx="65" ry="65" transform="translate(74 86.968)" fill="#9cd8ea"/>
    <path id="Path_8734" data-name="Path 8734" d="M79.625,154.818A62.221,62.221,0,0,1,182.944,108.1,62.222,62.222,0,1,0,95.13,195.913,61.984,61.984,0,0,1,79.625,154.818Z" opacity="0.07" style="mix-blend-mode: overlay;isolation: isolate"/>
    <g id="Group_8352" data-name="Group 8352" transform="translate(74 86.968)">
      <g id="Group_8351" data-name="Group 8351" clip-path="url(#clip-path)">
        <g id="Group_8350" data-name="Group 8350" transform="translate(24.007 9.874)">
          <g id="Group_8348" data-name="Group 8348" transform="translate(13.116 2.448)">
            <path id="Path_8735" data-name="Path 8735" d="M133.205,152.429c.972,3.971-.626,7.8-3.57,8.555s-6.118-1.855-7.091-5.825.626-7.8,3.57-8.554S132.233,148.458,133.205,152.429Z" transform="translate(-122.26 -113.022)" fill="#fff"/>
            <path id="Path_8736" data-name="Path 8736" d="M184.53,152.429c-.972,3.971.626,7.8,3.57,8.555s6.118-1.855,7.09-5.825-.625-7.8-3.569-8.554S185.5,148.458,184.53,152.429Z" transform="translate(-136.564 -113.022)" fill="#f4f1ef"/>
            <path id="Path_8737" data-name="Path 8737" d="M181.423,187.94c-.315-.085-.622-.185-.928-.288h0a14.793,14.793,0,0,1-10.028-13.17l-.223-3.937c.053-.044.106-.091.159-.136.123-.1.245-.207.368-.315.274-.241.547-.488.818-.744.129-.122.258-.25.387-.375.2-.2.406-.4.608-.608.142-.145.283-.294.425-.444q.26-.277.516-.562c.165-.182.328-.365.492-.553q.347-.4.69-.816c.156-.19.31-.385.465-.579.132-.166.263-.334.394-.5.161-.208.322-.418.48-.632.113-.153.225-.309.336-.465q.44-.607.865-1.237c.1-.142.192-.283.287-.427q.254-.384.5-.775c.081-.127.161-.256.24-.385q.543-.872,1.061-1.778l.04-.07c.172-.3.34-.61.508-.918q.09-.167.179-.335.794-1.487,1.5-3.044c.038-.084.078-.168.116-.252q.228-.509.448-1.022c.031-.072.061-.146.092-.218.322-.762.629-1.531.917-2.308,2.792.352,5.665-2.177,6.582-5.919.972-3.966-.622-7.791-3.559-8.551,0-.029,0-.058,0-.088,2.113-13.026-.708-22.168-3.97-25.622s-11.923-4.295-11.923-4.295c-2.885-1.218-1.154-3.205-1.154-3.205-2.692-1.154-6.346,1.154-6.346,1.154a11.1,11.1,0,0,0-2.219-1.529V223.1h39.2l3.206-17.168a12.8,12.8,0,0,0-9.281-14.719Z" transform="translate(-131.097 -102.986)" fill="#51504f" opacity="0.5" style="mix-blend-mode: overlay;isolation: isolate"/>
          </g>
          <path id="Path_8738" data-name="Path 8738" d="M168.651,203.052A14.8,14.8,0,0,1,157.7,189.594l-1.2-21.12H136.863l-1.253,22.007a14.8,14.8,0,0,1-11.132,13.5L115,206.388a12.984,12.984,0,0,0-9.568,14.969l3.148,16.855h78.4l3.175-17a12.984,12.984,0,0,0-9.413-14.928Z" transform="translate(-105.209 -115.651)" fill="#f4f1ef"/>
          <path id="Path_8739" data-name="Path 8739" d="M178.5,136.359c0,17.985-13.871,39.487-25.641,39.487s-25.641-21.5-25.641-39.487,11.479-28.718,25.641-28.718S178.5,118.374,178.5,136.359Z" transform="translate(-110.289 -101.613)" fill="#fff"/>
          <path id="Path_8740" data-name="Path 8740" d="M131.237,165.588c4.75,12.752,14.178,23.63,22.55,23.63s17.8-10.878,22.55-23.63c0,0-13.353,14.528-22.55,14.528S131.237,165.588,131.237,165.588Z" transform="translate(-111.216 -114.985)" fill="#51504f"/>
          <g id="Group_8349" data-name="Group 8349" transform="translate(0 87.041)">
            <path id="Path_8741" data-name="Path 8741" d="M168.651,213.318c-.315-.085-.622-.185-.928-.288-3.4,8.538-11.045,14.5-19.943,14.5-8.924,0-16.592-5.991-19.973-14.568a14.792,14.792,0,0,1-3.329,1.289L115,216.653a12.984,12.984,0,0,0-9.568,14.969l3.148,16.855h78.4l3.175-17a12.984,12.984,0,0,0-9.413-14.928Z" transform="translate(-105.209 -212.957)" fill="#57758e"/>
          </g>
          <path id="Path_8742" data-name="Path 8742" d="M126.115,135.834s-.336-13.784-3.855-20.13h3.815a24.175,24.175,0,0,1,1.8-8.654,4.374,4.374,0,0,0,3.944,2.308s-1.731-7.885-7.308-7.885c0,0,10.192-5,23.077,2.308a6.662,6.662,0,0,0-2.308-3.977s5.962,1.473,8.654,3.977c0,0,3.654-2.308,6.346-1.154,0,0-1.731,1.987,1.154,3.205,0,0,8.654.833,11.923,4.295s6.1,12.635,3.958,25.707c0,0-1.587-.13-3.051,2.306-1.1-9.744-7.638-18.782-7.638-18.782s-2.5-4.231-7.885-1.539a20.262,20.262,0,0,1-8.565,1.732c-2.589-.192-11.292-1.285-14.032.769-3.692,2.768-5.545,9.359-6.981,17.821A2.956,2.956,0,0,0,126.115,135.834Z" transform="translate(-109.144 -99.804)" fill="#51504f"/>
          <path id="Path_8743" data-name="Path 8743" d="M148.556,181.213c0-5.035-1.112-11.5,3.069-15.238,6.193-5.543,15.087-.545,15.325,7.162.083,2.687,0,5.389,0,8.077" transform="translate(-115.182 -114.531)" fill="none" stroke="#51504f" stroke-width="6"/>
        </g>
      </g>
    </g>
  </g>
</svg>
