<svg xmlns="http://www.w3.org/2000/svg" width="23.999" height="16.924" viewBox="0 0 23.999 16.924">
  <path id="Subtraction_325" data-name="Subtraction 325" d="M6.266,16.924h0A8.37,8.37,0,0,1,1.43,15.339,5.8,5.8,0,0,1,0,13.861,25.488,25.488,0,0,1,1.479,5.556a23.6,23.6,0,0,1,1.479-3.44A10.361,10.361,0,0,1,8.71,0h.023l.205.242a14.161,14.161,0,0,0-5.4,2.637l.042-.022c.136-.07.551-.281,1.168-.56A18.151,18.151,0,0,1,11.868.834,17.429,17.429,0,0,1,20.1,2.881,14.021,14.021,0,0,0,14.979.322L15.267,0h.023A10.357,10.357,0,0,1,21.04,2.116a23.683,23.683,0,0,1,1.48,3.44A25.849,25.849,0,0,1,24,13.861a5.929,5.929,0,0,1-1.441,1.478,8.42,8.42,0,0,1-4.846,1.584c-.008-.009-.751-.88-1.357-1.632a6.54,6.54,0,0,0,3.719-2.4,11.882,11.882,0,0,1-2.362,1.189,14.649,14.649,0,0,1-5.605,1.088A15.228,15.228,0,0,1,4.89,13.378l-.1-.056c-.168-.095-.515-.29-.745-.448a6.411,6.411,0,0,0,3.6,2.378c-.608.755-1.369,1.663-1.377,1.672Zm9.507-9.7a2.353,2.353,0,1,0,2.395,2.35A2.376,2.376,0,0,0,15.773,7.221Zm-7.195,0a2.353,2.353,0,1,0,2.395,2.35A2.376,2.376,0,0,0,8.579,7.221Z" transform="translate(0 0)" fill="#ef9e5e"/>
</svg>
