<svg xmlns="http://www.w3.org/2000/svg" width="61.108" height="59.411" viewBox="0 0 61.108 59.411">
  <g id="Group_7091" data-name="Group 7091" transform="translate(-0.782 -2)">
    <g id="Ellipse_244" data-name="Ellipse 244" transform="translate(0.782 2)" fill="none" stroke="#ef9e5e" stroke-width="2">
      <ellipse cx="30.554" cy="29.705" rx="30.554" ry="29.705" stroke="none"/>
      <ellipse cx="30.554" cy="29.705" rx="29.554" ry="28.705" fill="none"/>
    </g>
    <path id="Twitter" d="M29.2,54.67c.021.289.021.578.021.867,0,8.819-6.712,18.98-18.98,18.98A18.851,18.851,0,0,1,0,71.523a13.8,13.8,0,0,0,1.611.083,13.36,13.36,0,0,0,8.282-2.85,6.683,6.683,0,0,1-6.237-4.626,8.411,8.411,0,0,0,1.26.1,7.056,7.056,0,0,0,1.755-.227,6.672,6.672,0,0,1-5.349-6.547v-.083a6.718,6.718,0,0,0,3.015.847A6.681,6.681,0,0,1,2.272,49.3a18.962,18.962,0,0,0,13.755,6.981,7.531,7.531,0,0,1-.165-1.528,6.677,6.677,0,0,1,11.545-4.564,13.133,13.133,0,0,0,4.234-1.611,6.653,6.653,0,0,1-2.933,3.676,13.373,13.373,0,0,0,3.841-1.033A14.34,14.34,0,0,1,29.2,54.67Z" transform="translate(15.782 -30.082)" fill="#fff"/>
  </g>
</svg>
